<?xml version="1.0" encoding="UTF-8" standalone="no"?>
<!-- Created with Inkscape (http://www.inkscape.org/) -->

<svg
   xmlns:dc="http://purl.org/dc/elements/1.1/"
   xmlns:cc="http://creativecommons.org/ns#"
   xmlns:rdf="http://www.w3.org/1999/02/22-rdf-syntax-ns#"
   xmlns:svg="http://www.w3.org/2000/svg"
   xmlns="http://www.w3.org/2000/svg"
   version="1.1"
   width="124.84509"
   height="24.015011"
   id="svg2">
  <defs
     id="defs4" />
  <metadata
     id="metadata7">
    <rdf:RDF>
      <cc:Work
         rdf:about="">
        <dc:format>image/svg+xml</dc:format>
        <dc:type
           rdf:resource="http://purl.org/dc/dcmitype/StillImage" />
        <dc:title></dc:title>
      </cc:Work>
    </rdf:RDF>
  </metadata>
  <g
     transform="translate(-201.73235,-83.998676)"
     id="layer1">
    <g
       id="text2985-7"
       style="font-size:26px;font-style:normal;font-variant:normal;font-weight:normal;font-stretch:normal;line-height:125%;letter-spacing:0px;word-spacing:0px;fill:#000000;fill-opacity:1;stroke:none;font-family:Arial;-inkscape-font-specification:Arial">
      <path
         d="m 206.23035,84.092263 c 0.46799,-0.103981 1.41266,-0.121315 2.834,-0.052 2.28799,0.242685 3.73532,0.823351 4.342,1.742 1.09199,1.196016 1.81999,2.634681 2.184,4.316 0.10399,0.485345 0.0953,0.988012 -0.026,1.508 0.052,0.06934 0.15599,0.338011 0.312,0.806 0.43332,1.924008 -0.0953,3.466673 -1.586,4.628 -1.47335,1.040005 -3.06801,1.924004 -4.784,2.652 l 0.13,0.623997 c 0.57199,4.212 0.84932,6.58667 0.832,7.124 -0.0867,0.12133 -0.16468,0.19066 -0.234,0.208 -0.32934,0.0693 -0.56334,0 -0.702,-0.208 -0.76267,0.0173 -1.40401,0.0867 -1.924,0.208 l -0.26,0.052 -0.234,0.26 -0.208,0.052 c -0.19067,0.0347 -0.44201,-0.56334 -0.754,-1.794 -0.052,0.0173 -0.0953,-0.0693 -0.13,-0.26 l -0.832,-3.796 -0.624,-4.159997 -0.312,-1.456 c -0.43334,-1.923992 -0.89267,-3.917323 -1.378,-5.98 -0.0867,-0.623987 -0.25134,-1.464653 -0.494,-2.522 -0.0173,-0.138652 -0.21667,-0.597985 -0.598,-1.378 l -0.052,-0.286 c 0.12133,-0.363983 0.74533,-0.84065 1.872,-1.43 1.36933,-0.485315 2.24466,-0.771315 2.626,-0.858 m -3.822,2.366 c 0.34666,0.693349 0.56333,1.274015 0.65,1.742 l 2.184,9.958 c 0.29466,2.236007 0.48533,3.544667 0.572,3.925997 l 0.78,3.536 2.262,-0.286 -0.286,-1.3 c -0.24267,-1.52533 -0.37267,-2.34866 -0.39,-2.47 l -0.65,-2.963997 c -0.0347,-0.277329 -1e-5,-0.433329 0.104,-0.468 l 0.494,-0.104 0.312,0.156 c 1.87199,-0.693328 3.41466,-1.490661 4.628,-2.392 0.38132,-0.08666 0.87532,-0.823326 1.482,-2.21 0.43332,-1.525323 0.55465,-2.712655 0.364,-3.562 -0.34668,-1.629319 -1.16135,-3.067984 -2.444,-4.316 -0.93601,-0.727982 -2.75601,-1.083315 -5.46,-1.066 l -1.118,0.26 c -1.33467,0.277351 -2.496,0.79735 -3.484,1.56 m 4.732,0.468 0.364,0 0.286,-0.052 c 1.73332,-0.381317 3.04199,-0.04332 3.926,1.014 0.45066,0.572014 0.74532,1.161347 0.884,1.768 0.32932,1.490678 0.0867,2.608677 -0.728,3.354 -1.43868,1.421342 -2.56534,2.218674 -3.38,2.392 l -1.508,0.338 c -0.0867,0.01734 -0.19934,-0.05199 -0.338,-0.208 l -0.052,-0.13 c -0.12134,-0.606659 -0.62401,-2.59999 -1.508,-5.98 l -0.208,-0.91 c -0.052,-0.225319 0.66733,-0.693318 2.158,-1.404 l 0.104,-0.182 m 0.936,0.598 0,0.078 c 0.12133,0.173348 0.21666,0.251348 0.286,0.234 l 1.586,-0.364 -0.026,-0.052 c -0.36401,-0.06932 -0.74534,-0.06065 -1.144,0.026 0.0173,0.08668 -0.0173,0.138682 -0.104,0.156 -0.13867,0.03468 -0.33801,0.0087 -0.598,-0.078 m -0.884,0.26 0,0.078 0.39,0.416 c 0.0867,-0.05199 0.15599,-0.08665 0.208,-0.104 -0.29467,-0.190652 -0.45067,-0.329318 -0.468,-0.416 l -0.13,0.026 m -1.378,0.676 0.026,0.13 c 0.32933,0.364014 0.53733,0.537347 0.624,0.52 0.0867,-0.01732 0.27733,-0.129986 0.572,-0.338 l 0,-0.078 c -0.19067,-0.398652 -0.35534,-0.580652 -0.494,-0.546 l -0.13,0.026 c -0.12134,0.03468 -0.32067,0.130014 -0.598,0.286 m 1.118,1.118 c 0.19066,0.433346 0.48533,1.360678 0.884,2.782 l 0.546,2.418 0.052,0 c 1.42132,-0.606658 2.62599,-1.620657 3.614,-3.042 0.0693,-0.849322 0.0433,-1.516654 -0.078,-2.002 -0.27734,-1.299986 -1.04001,-1.811319 -2.288,-1.534 l -0.962,0.208 c -0.26001,0.05201 -0.84934,0.442014 -1.768,1.17 m -0.936,1.014 0,0.078 c 0.0693,0.06934 0.11266,0.130012 0.13,0.182 l 0.26,-0.052 c -0.0173,-0.06932 -0.14734,-0.138655 -0.39,-0.208 m 0.442,1.43 0.026,0.052 c 0.27733,1.022676 0.48533,1.854675 0.624,2.496 l 0.104,0.468 0.416,-0.078 c 0.0867,-0.01733 0.12133,-0.07799 0.104,-0.182 l -0.624,-2.756 c -0.15601,0.03468 -0.37267,0.03468 -0.65,0 m 6.838,4.368 c 0.10399,0.277339 0.20799,0.398673 0.312,0.364 0.46799,-0.225327 0.90132,-0.65866 1.3,-1.3 0.41599,-0.779992 0.58065,-1.438658 0.494,-1.976 l -0.026,-0.208 c -0.50268,1.525341 -1.17001,2.56534 -2.002,3.12 l -0.078,0 m -1.066,0.754 c 0.0173,0.08667 0.17332,0.147339 0.468,0.182 l 0.338,-0.156 -0.026,-0.052 c -0.0173,-0.08666 -0.13001,-0.164661 -0.338,-0.234 l -0.442,0.26 m -0.988,0.494 0.026,0.078 c 0.12132,0.08667 0.19066,0.190671 0.208,0.312 l 0.078,-0.026 0.312,-0.13 c -0.22534,-0.190662 -0.34668,-0.311995 -0.364,-0.364 -0.0693,0.06934 -0.15601,0.112672 -0.26,0.13 m -1.066,0.442 0.026,0.078 c 0.22532,0.242671 0.37266,0.355338 0.442,0.338 l 0.338,-0.13 c -0.0173,-0.06933 -0.19068,-0.181995 -0.52,-0.338 l -0.286,0.052 m -1.274,0.728 0.338,0.208 0.338,-0.078 0.338,-0.13 -0.312,-0.364 c -0.50267,0.138671 -0.73667,0.260004 -0.702,0.364 m -0.598,0.286 0.104,0.468 c 0.0173,0.06934 0.18199,0.156003 0.494,0.26 l -0.026,-0.078 c -0.31201,-0.363997 -0.47667,-0.58933 -0.494,-0.676 l -0.078,0.026 m 0.312,1.429997 0.208,0.91 c 0.17333,-0.0347 0.28599,0.0347 0.338,0.208 l 0.052,0 c -10e-6,-0.0693 -0.026,-0.30333 -0.078,-0.702 -0.29467,-0.27733 -0.46801,-0.41599 -0.52,-0.416 m 0.338,1.898 0.13,0.546 c 0.0173,0.0693 0.10399,0.12134 0.26,0.156 0.0173,-0.29466 0.0173,-0.48533 0,-0.572 l -0.312,-0.156 -0.078,0.026 m 0.26,1.534 0.156,0.624 0.208,-0.052 -0.104,-0.416 c -0.0173,-0.0693 -0.10401,-0.12133 -0.26,-0.156 m 0.338,1.534 0.078,0.338 0.078,-0.026 -0.078,-0.338 -0.078,0.026 m -2.964,0.988 c 0.24266,0.416 0.36399,0.63267 0.364,0.65 l 0.624,-0.13 c 0.50266,-0.104 1.13533,-0.17333 1.898,-0.208 l 0,-0.052 -0.52,-0.754 c -1.07467,0.12133 -1.64667,0.19067 -1.716,0.208 l -0.39,0.104 c -0.10401,0.12133 -0.19067,0.182 -0.26,0.182"
         id="path3011"
         style="font-family:Cartoon Relief;-inkscape-font-specification:Cartoon Relief" />
      <path
         d="m 223.55366,92.438263 0.416,0 c 2.13199,10e-6 3.51866,1.178676 4.16,3.536 0.13866,0.606673 0.20799,1.022672 0.208,1.248 -1e-5,2.825337 -1.10934,4.731997 -3.328,5.719997 -0.43334,0.97067 -1.47334,1.456 -3.12,1.456 -1.23067,0 -2.444,-0.58933 -3.64,-1.768 -0.90133,-1.52533 -1.352,-2.53066 -1.352,-3.015997 l 0,-1.768 c 0.208,-1.525327 0.79733,-2.877326 1.768,-4.056 0.69333,-0.693324 1.21333,-1.03999 1.56,-1.04 l 0.728,0 c 0.0693,1e-5 0.104,0.03468 0.104,0.104 0.78,-0.277323 1.612,-0.41599 2.496,-0.416 m -5.096,5.72 c 0.19067,2.305337 1.092,3.691997 2.704,4.159997 0.34666,0.208 0.79733,0.312 1.352,0.312 l 0.832,0 c 1.76799,0 3.11999,-1.00533 4.056,-3.015997 0.20799,-0.675996 0.31199,-1.299996 0.312,-1.872 l 0,-0.624 c -0.39867,-2.703992 -1.57734,-4.05599 -3.536,-4.056 l -0.936,0 c -2.06267,1e-5 -3.51867,1.144008 -4.368,3.432 -0.156,6e-6 -0.29467,0.554672 -0.416,1.664 m -1.04,0.624 c 0,1.560007 0.79733,3.015997 2.392,4.367997 0.728,0.34667 1.17866,0.52 1.352,0.52 0,-0.312 0.0347,-0.52 0.104,-0.624 -0.84933,-0.17333 -1.716,-0.79733 -2.6,-1.872 -0.48533,-0.98799 -0.728,-1.785327 -0.728,-2.391997 l 0,-1.04 c 0,-1.247994 0.76267,-2.703992 2.288,-4.368 l -0.104,0 c -1.80267,1.386675 -2.704,3.189339 -2.704,5.408 m 5.512,-4.472 0.832,0 c 1.36933,8e-6 2.23599,0.970674 2.6,2.912 l 0,0.104 c -1e-5,1.75067 -0.86667,2.929337 -2.6,3.535997 l -0.728,0.104 -0.104,0 c -1.612,0 -2.61733,-0.58933 -3.016,-1.767997 l -0.104,-0.624 0,-0.936 c 0.65867,-2.218659 1.69866,-3.327992 3.12,-3.328 m -0.312,0.624 c 0.0173,0.138674 0.0867,0.208008 0.208,0.208 l 0.312,0 0.52,-0.104 0,-0.104 c -0.416,8e-6 -0.624,-0.03466 -0.624,-0.104 -0.12134,0.06934 -0.26,0.104008 -0.416,0.104 m 1.352,0.624 0.104,0 c 0.34666,-0.190659 0.51999,-0.329326 0.52,-0.416 l -0.208,0 c -0.10401,8e-6 -0.24267,0.138674 -0.416,0.416 m -3.64,2.704 c 0,1.38667 0.86666,2.080007 2.6,2.079997 l 0.104,0 c 0.572,1e-5 1.26533,-0.31199 2.08,-0.935997 l -0.104,-0.52 0,-1.352 c -0.81467,-1.247994 -1.612,-1.871993 -2.392,-1.872 -1.248,7e-6 -1.872,0.38134 -1.872,1.144 -0.27733,0.554672 -0.416,1.040005 -0.416,1.456 m 4.68,-1.768 0.208,0.104 0.312,-0.416 -0.208,0 c -0.10401,7e-6 -0.20801,0.104006 -0.312,0.312 m 0.52,0.624 0.104,0.624 0.104,0 0,-0.832 c -0.13867,0.01734 -0.20801,0.08667 -0.208,0.208 m -3.744,6.135997 -0.104,0.52 0.624,0 0.104,-0.52 -0.624,0 m 1.144,0.416 0.416,0 0.104,-0.416 -0.208,0 c -0.104,0 -0.208,0.13867 -0.312,0.416"
         id="path3013"
         style="font-family:Cartoon Relief;-inkscape-font-specification:Cartoon Relief" />
      <path
         d="m 241.66022,91.138263 c 1.09199,0.260011 2.30532,0.849344 3.64,1.768 l 0,0.104 c -1e-5,0.485343 -0.79734,2.253341 -2.392,5.304 l -0.624,2.599997 0.104,0.208 c -0.27734,1.10934 -0.48534,1.664 -0.624,1.664 -0.052,0 -0.32934,-0.0347 -0.832,-0.104 l -1.04,0.312 c -1.24801,-0.884 -2.08,-2.028 -2.496,-3.431997 -0.0693,-0.12133 -0.104,-0.259997 -0.104,-0.416 l -0.624,1.039997 0.104,0.208 0,0.104 c -0.48534,0.34667 -0.728,0.97067 -0.728,1.872 -0.19067,0.17334 -0.60667,0.27734 -1.248,0.312 -1.94133,-0.58933 -2.912,-0.936 -2.912,-1.04 -1.17866,-4.281325 -2.288,-7.470655 -3.328,-9.567997 -0.0693,-0.121323 -0.104,-0.259989 -0.104,-0.416 l 0.312,-0.208 1.248,0 c 0.156,1.1e-5 0.29467,0.03468 0.416,0.104 0.12134,-0.06932 0.26,-0.103989 0.416,-0.104 l 0.312,0 c 0.676,1.1e-5 1.092,0.450677 1.248,1.352 0.624,1.022676 1.248,1.889341 1.872,2.6 0.34667,-1.247991 0.79733,-2.357324 1.352,-3.328 l 0.104,0 c 1.07466,1.1e-5 1.768,-0.103989 2.08,-0.312 0.77999,1.1e-5 1.23066,0.589344 1.352,1.768 0.24266,0.364009 0.48533,1.022675 0.728,1.976 l 0.104,0 c 0.48533,-1.213325 1.00533,-2.669323 1.56,-4.368 l 0.104,0 m 0.312,0.832 c -0.90134,2.218675 -1.59467,4.264006 -2.08,6.136 l -0.208,0.104 -0.104,0 c -0.20801,-0.05199 -0.76267,-1.438661 -1.664,-4.16 -0.12134,9e-6 -0.29467,-0.485324 -0.52,-1.456 -0.97067,0.05201 -1.456,0.121343 -1.456,0.208 -0.55467,0.936009 -1.21333,3.050674 -1.976,6.344 l -0.312,0 c -0.104,-0.03466 -0.65867,-1.213329 -1.664,-3.536 -1.23066,-2.270657 -1.88933,-3.449323 -1.976,-3.536 l -0.728,0 0,0.104 c 1.04,2.201342 2.04534,5.113339 3.016,8.735997 l 1.56,0 0.728,0.104 c 0,-0.58933 0.52,-2.11466 1.56,-4.575997 l 0.312,-0.208 0.104,0 c 0.13866,0.08667 0.832,1.646671 2.08,4.679997 0.13866,0 0.20799,0.104 0.208,0.312 l 0.104,0 c 1.10933,-0.0867 1.66399,-0.32933 1.664,-0.728 -1e-5,-0.849327 1.03999,-3.483991 3.12,-7.903997 -0.86668,-0.415989 -1.45601,-0.623989 -1.768,-0.624 m -11.128,0.104 1.248,2.704 0.832,0 c -0.22533,-0.294658 -0.74533,-1.195991 -1.56,-2.704 l -0.52,0 m 7.176,0.416 0,0.104 c 0.98799,2.756007 1.54266,4.212006 1.664,4.368 l 0,-0.312 c -0.91867,-2.686658 -1.43867,-4.073323 -1.56,-4.16 l -0.104,0 m 6.136,0.624 c -1.02268,1.924008 -1.88934,4.038672 -2.6,6.344 l 0.416,0.312 c -1e-5,-0.90133 0.76266,-2.738661 2.288,-5.512 0.27732,-0.554658 0.41599,-0.935991 0.416,-1.144 l -0.52,0 m -11.544,2.288 0,0.208 c 0.364,7e-6 0.572,-0.103993 0.624,-0.312 l -0.104,0 -0.52,0.104 m 0.312,0.832 c 0.416,0.832006 0.624,1.352005 0.624,1.56 l 0.208,0 0.208,-1.352 c -0.0693,-0.415993 -0.17333,-0.623993 -0.312,-0.624 l -0.728,0.416 m 3.432,1.248 0,0.312 c 0.0693,5e-6 0.17333,0.03467 0.312,0.104 l 0,-0.104 c -0.0693,-0.138662 -0.104,-0.242662 -0.104,-0.312 l -0.208,0 m -0.312,0.832 c -0.0693,0.208004 -0.104,0.416004 -0.104,0.624 l 0.624,0.104 0.104,-0.208 c 0,-0.08666 -0.17334,-0.259996 -0.52,-0.52 l -0.104,0 m -0.416,0.936 -0.104,0.52 0.624,0.208 0.104,-0.208 0,-0.208 c -0.19067,3e-6 -0.39867,-0.103997 -0.624,-0.312 m 5.72,0.831997 0,0.104 c 0.0173,0.13867 0.0867,0.20801 0.208,0.208 l 0.104,0 c -1e-5,-0.10399 -0.10401,-0.20799 -0.312,-0.312 m -6.136,0.312 0,0.728 -0.104,0.208 0.208,0.104 0.104,0 c 0.208,0 0.312,-0.312 0.312,-0.936 -0.12134,-0.0693 -0.26,-0.10399 -0.416,-0.104 l -0.104,0 m 5.928,0.52 0,0.104 c -1e-5,0.156 0.17333,0.26 0.52,0.312 -1e-5,-0.104 -0.13868,-0.24266 -0.416,-0.416 l -0.104,0 m -7.696,0.624 0,0.104 c 0.74533,0.27734 1.26533,0.416 1.56,0.416 l 0.104,0 0,-0.104 c -0.572,-0.27733 -0.91867,-0.416 -1.04,-0.416 l -0.624,0 m 6.032,0.208 0.52,0.624 c 0.27733,-0.208 0.76266,-0.312 1.456,-0.312 -1e-5,-0.156 -0.31201,-0.32933 -0.936,-0.52 l -1.04,0.208"
         id="path3015"
         style="font-family:Cartoon Relief;-inkscape-font-specification:Cartoon Relief" />
      <path
         d="m 250.75291,92.178263 c 0.27733,1.1e-5 1.456,0.83201 3.536,2.496 0.97066,0.832007 1.45599,1.62934 1.456,2.392 -1e-5,0.156005 -1.17867,0.780005 -3.536,1.872 -0.208,0.329337 -1.04,0.918669 -2.496,1.767997 0,0.468 0.55466,0.884 1.664,1.248 0.52,0 1.17866,-0.17333 1.976,-0.52 -1e-5,0.29467 0.58933,0.53734 1.768,0.728 l 0.104,0.208 0,0.208 c -0.22534,0.19067 -0.36401,0.676 -0.416,1.456 l -0.208,0.104 -0.104,0 c -0.0693,0 -0.10401,-0.0347 -0.104,-0.104 -1.02267,0.624 -1.78534,0.936 -2.288,0.936 l -1.768,0 c -1.10934,0 -2.288,-0.76267 -3.536,-2.288 -1.10933,-1.456 -1.664,-3.119994 -1.664,-4.991997 0,-2.495993 0.76267,-4.125324 2.288,-4.888 0.71067,-0.346656 1.23067,-0.51999 1.56,-0.52 l 0.312,0 c 0.50266,0.138677 0.78,0.20801 0.832,0.208 0.0693,-0.20799 0.27733,-0.311989 0.624,-0.312 m -4.992,5.616 c 0,2.565337 0.86667,4.229337 2.6,4.991997 0.81466,0.416 1.57733,0.624 2.288,0.624 l 0.728,0 1.04,-0.104 0,-0.728 -0.728,0.104 -0.416,0 c -1.47334,0 -2.444,-0.624 -2.912,-1.872 -0.0693,-0.27733 -0.104,-0.55466 -0.104,-0.831997 l 0,-0.104 c 0.884,-0.935996 2.68666,-2.183995 5.408,-3.744 -0.38134,-0.571993 -1.42134,-1.507992 -3.12,-2.808 l -1.144,-0.416 -0.312,0 c -1.664,0.416009 -2.496,0.901342 -2.496,1.456 -0.55467,0.728008 -0.832,1.872006 -0.832,3.432 m 3.224,-3.744 c 0.81466,9e-6 1.64666,0.485341 2.496,1.456 l 0,0.312 -3.12,2.496 -0.312,0 c -0.55467,-0.381329 -0.832,-1.178661 -0.832,-2.392 l 0,-0.312 c 0,-0.849325 0.58933,-1.369325 1.768,-1.56 m 3.952,0.416 0,0.104 c 0.22533,8e-6 0.71066,0.450674 1.456,1.352 l 0.416,0.312 0.104,0 c -0.27734,-0.433326 -0.90134,-1.022659 -1.872,-1.768 l -0.104,0 m -4.16,0.208 c 0.0693,0.121341 0.104,0.260008 0.104,0.416 l 0.208,0 0,-0.104 c -0.0693,-0.138659 -0.104,-0.242659 -0.104,-0.312 l -0.208,0 m 0.936,0.208 0,0.208 0.208,0 c 0,-0.138659 -0.0693,-0.207992 -0.208,-0.208 m -1.664,0.104 -0.208,0.728 0,0.104 0.104,0 c 0,-0.277326 0.13867,-0.415993 0.416,-0.416 l 0,-0.208 c 0,-0.138659 -0.0693,-0.207992 -0.208,-0.208 l -0.104,0 m 0,2.392 c 0.0693,0.138672 0.104,0.242672 0.104,0.312 1.456,-1.126661 2.184,-1.715993 2.184,-1.768 0,-0.13866 -0.0693,-0.207993 -0.208,-0.208 l -0.936,0 c -0.69333,7e-6 -1.04,0.48534 -1.04,1.456 -0.0693,6e-6 -0.104,0.06934 -0.104,0.208 m 5.824,-1.04 0.104,0.208 c -0.22534,0.346672 -1.23067,0.970672 -3.016,1.872 0,0.08667 0.208,0.225337 0.624,0.416 0,-0.259996 1.03999,-0.849329 3.12,-1.768 l 0.104,0 c -1e-5,-0.08666 -0.27734,-0.329327 -0.832,-0.728 l -0.104,0 m -4.264,3.016 0,0.104 0.416,0.104 0.208,0 0,-0.104 c -0.22534,3e-6 -0.39867,-0.03466 -0.52,-0.104 l -0.104,0 m -0.624,0.624 c 0.0173,0.138667 0.0867,0.208007 0.208,0.207997 l 0.208,0 0,-0.207997 -0.416,0 m 0,0.727997 0,0.104 c 0.13866,0.17334 0.208,0.312 0.208,0.416 l 0.104,0 0,-0.416 c -0.0693,0 -0.17334,-0.0347 -0.312,-0.104 m 4.16,1.456 -0.104,0.728 0,0.208 1.248,0.312 0.104,-0.728 c -0.60667,-0.13866 -1.02267,-0.312 -1.248,-0.52 m -4.264,1.56 c 0,0.22534 0.52,0.43333 1.56,0.624 l 0.728,0 c 0,-0.156 -0.76267,-0.364 -2.288,-0.624 m 4.056,0 0,0.104 0.416,0.104 c -1e-5,-0.13866 -0.10401,-0.208 -0.312,-0.208 l -0.104,0 m -1.04,0.208 0,0.104 c 0.0693,0.208 0.27733,0.312 0.624,0.312 -10e-6,-0.12133 -0.20801,-0.26 -0.624,-0.416"
         id="path3017"
         style="font-family:Cartoon Relief;-inkscape-font-specification:Cartoon Relief" />
      <path
         d="m 262.7381,90.696263 c 0.20799,1.2e-5 0.69333,0.242678 1.456,0.728 l 0,0.728 c -10e-6,1.525342 -0.55467,2.392008 -1.664,2.6 -0.0693,-0.207992 -0.27734,-0.311992 -0.624,-0.312 l -0.208,0 c -0.60667,8e-6 -1.05734,0.312008 -1.352,0.936 l 0,0.104 1.872,7.383997 0,0.208 c -10e-6,0.34667 -0.0693,0.52 -0.208,0.52 0.13866,0.22534 0.20799,0.39867 0.208,0.52 -0.41601,0.24267 -0.62401,0.416 -0.624,0.52 l -0.416,-0.104 c -0.052,0 -0.53734,0.17333 -1.456,0.52 -0.24267,0 -0.76267,-1.21333 -1.56,-3.64 -0.69334,-2.565326 -1.456,-5.234657 -2.288,-8.007997 0.53733,-0.83199 1.43866,-1.386656 2.704,-1.664 l 0.208,0 c 0.27733,0.502677 0.416,0.814677 0.416,0.936 0.832,-1.317322 2.01066,-1.975988 3.536,-1.976 m -3.432,3.224 -0.104,0 c -0.13867,9e-6 -0.38134,-0.485324 -0.728,-1.456 l -0.208,0 c -0.39867,0.20801 -0.74534,0.31201 -1.04,0.312 l 0,0.104 c 1.26533,5.217338 2.27066,8.545337 3.016,9.983997 0.84933,-0.34666 1.29999,-0.52 1.352,-0.52 -0.39867,-0.832 -1.02267,-3.05066 -1.872,-6.655997 -0.0693,7e-6 -0.104,-0.03466 -0.104,-0.104 l 0,-0.936 c 0.19066,-1.247991 0.78,-1.87199 1.768,-1.872 0.71066,0.138676 1.19599,0.20801 1.456,0.208 0.13866,-0.658656 0.27733,-1.109323 0.416,-1.352 l -0.416,-0.312 c -1.68134,1.1e-5 -2.756,0.693344 -3.224,2.08 0,0.346676 -0.104,0.520009 -0.312,0.52 m -2.704,-0.52 c 0,0.06934 -0.0347,0.104009 -0.104,0.104 0.832,2.496007 1.248,3.986672 1.248,4.472 l 0.104,0 0,-0.312 c -0.58933,-2.582659 -1.00533,-4.003991 -1.248,-4.264 m 4.68,0 0,0.416 0.208,0 c -10e-6,-0.06932 0.0347,-0.173324 0.104,-0.312 l -0.208,-0.104 -0.104,0 m -0.936,0.936 c 0.104,8e-6 0.208,-0.103992 0.312,-0.312 l 0,-0.312 c -0.208,0.06934 -0.312,0.277342 -0.312,0.624 m -2.496,3.744 0,0.208 0.104,0 0,-0.208 -0.104,0 m 0.52,1.768 0,0.311997 0.104,0 0,-0.311997 -0.104,0 m 0.312,1.039997 0,0.208 c 0.0693,0.13867 0.104,0.24267 0.104,0.312 l 0.104,0 0,-0.208 c -0.0693,-0.13866 -0.104,-0.24266 -0.104,-0.312 l -0.104,0 m 0.416,1.248 0,0.312 c 0.0693,0.13867 0.104,0.24267 0.104,0.312 0.13866,0 0.208,-0.0693 0.208,-0.208 -0.13867,-0.17333 -0.208,-0.312 -0.208,-0.416 l -0.104,0 m 2.08,1.664 0,0.104 c 0.15599,0 0.29466,-0.312 0.416,-0.936 -0.17334,0 -0.31201,0.27734 -0.416,0.832 m -1.56,-0.52 c 0,0.0693 -0.0347,0.104 -0.104,0.104 0.0693,0.12134 0.104,0.26 0.104,0.416 l 0.208,0 0,-0.312 c 0,-0.13866 -0.0693,-0.208 -0.208,-0.208 m 0.832,0.104 c 0,0.208 -0.0347,0.45067 -0.104,0.728 0.12133,0 0.22533,-0.24266 0.312,-0.728 l -0.208,0"
         id="path3019"
         style="font-family:Cartoon Relief;-inkscape-font-specification:Cartoon Relief" />
      <path
         d="m 277.21604,86.250263 c 0.55465,0.277349 1.35198,0.554683 2.392,0.832 0.0693,0.658682 0.20798,1.352014 0.416,2.08 -2.09735,4.142676 -3.90001,7.366673 -5.408,9.672 -10e-6,0.052 -1.00535,1.993337 -3.016,5.823997 -0.32934,1.52533 -0.60668,2.288 -0.832,2.288 l -0.624,0 c -0.65867,-0.416 -1.14401,-0.624 -1.456,-0.624 -0.17334,0 -0.69334,0.0347 -1.56,0.104 -0.364,-0.52 -0.988,-1.10933 -1.872,-1.768 0,-0.13867 -0.0347,-0.208 -0.104,-0.208 0.0693,-0.69333 0.104,-1.21333 0.104,-1.56 l 0,-7.383997 c 0,-2.010657 0.0347,-4.783988 0.104,-8.32 0.17333,-0.138651 0.312,-0.207984 0.416,-0.208 0.312,1.6e-5 1.35199,0.03468 3.12,0.104 0.90133,0.832015 1.35199,1.525347 1.352,2.08 -10e-6,1.300012 -0.24267,3.79601 -0.728,7.488 l 0,1.456 -0.104,0.52 c 0.46799,-0.450662 1.47332,-2.149327 3.016,-5.096 0.46799,-1.473323 1.78532,-3.657321 3.952,-6.552 0.46799,-0.485317 0.74532,-0.727984 0.832,-0.728 m 0,0.728 c -2.46135,3.120013 -4.05601,5.754677 -4.784,7.904 -2.28801,4.229337 -3.91734,6.343997 -4.888,6.343997 -0.13867,0 -0.20801,-0.0693 -0.208,-0.208 l 0,-0.104 c -1e-5,-0.104 0.13866,-0.208 0.416,-0.312 -0.0693,-0.20799 -0.13867,-0.31199 -0.208,-0.312 0.48533,-4.99199 0.72799,-7.903987 0.728,-8.735997 l 0,-2.912 0.104,-1.04 -2.392,0 c -0.0693,2.877346 -0.104,5.026677 -0.104,6.448 l 0,9.463997 -0.104,0.52 c 0.90133,0.208 2.07999,0.312 3.536,0.312 l 0.208,0 0.312,0.208 c 3.10266,-7.435991 5.97999,-13.086652 8.632,-16.951997 0.0693,1.5e-5 0.10398,-0.03465 0.104,-0.104 l 0,-0.104 -1.352,-0.416 m -2.08,7.696 c 0.13865,0.01734 0.20799,0.08667 0.208,0.208 l 0,0.104 c -0.62401,0.416007 -0.97068,0.79734 -1.04,1.144 -0.27735,0.27734 -0.41601,0.624006 -0.416,1.04 l 0.624,0.52 c 0.41599,-0.277328 0.62399,-0.658661 0.624,-1.144 -0.20801,6e-6 -0.41601,-0.173327 -0.624,-0.52 -1e-5,-0.103993 0.10399,-0.207993 0.312,-0.312 l 0.104,0 c 0.19065,0.208007 0.43332,0.312007 0.728,0.312 0.43332,-0.623993 1.54265,-2.703991 3.328,-6.24 0.0693,1.3e-5 0.20798,-0.207987 0.416,-0.624 -0.20802,-0.675986 -0.31202,-1.091985 -0.312,-1.248 -1.57735,2.028013 -2.89468,4.281344 -3.952,6.76 m -6.24,-6.656 0,2.08 c -1e-5,1.612011 -0.0693,3.276009 -0.208,4.992 0.13866,0.277341 0.20799,0.520007 0.208,0.728 -0.10401,7e-6 -0.24267,0.138673 -0.416,0.416 l 0,0.208 c 0.15599,6e-6 0.29466,0.03467 0.416,0.104 0.48533,-3.275991 0.72799,-5.806655 0.728,-7.592 -0.26001,-0.519986 -0.50267,-0.831985 -0.728,-0.936 m -0.416,9.048 0,0.104 c 0.13866,0.173339 0.20799,0.312005 0.208,0.416 l 0.208,0 0,-0.416 -0.416,-0.104 m 4.68,1.352 c 0.32932,4e-6 0.60665,0.173337 0.832,0.52 l 0.208,-0.728 c -0.34668,-0.207995 -0.52001,-0.415995 -0.52,-0.624 -0.10401,5e-6 -0.27734,0.277338 -0.52,0.832 m -4.784,-0.312 -0.104,1.04 0.52,0.104 0,-0.416 0.104,-0.52 c -0.10401,4e-6 -0.24267,-0.06933 -0.416,-0.208 l -0.104,0 m 4.576,0.624 c -0.13868,0.39867 -0.20801,0.71067 -0.208,0.936 0.052,3e-6 0.22532,0.173336 0.52,0.519997 l 0.312,-0.831997 c -0.27734,-0.12133 -0.41601,-0.32933 -0.416,-0.624 l -0.208,0 m -4.68,1.04 0,0.311997 c 0.13866,10e-6 0.20799,-0.0693 0.208,-0.207997 l 0,-0.104 -0.208,0 m 3.848,1.039997 c 0.27732,0.13867 0.41599,0.312 0.416,0.52 l 0.208,0 c 0.0693,-0.208 0.10399,-0.416 0.104,-0.624 -0.15601,0 -0.26001,-0.17333 -0.312,-0.52 -0.12134,10e-6 -0.26001,0.20801 -0.416,0.624 m -0.312,0.624 -0.104,0.52 0.416,0.312 0.104,0 c -10e-6,-0.104 0.10399,-0.312 0.312,-0.624 -0.26001,0 -0.46801,-0.0693 -0.624,-0.208 l -0.104,0 m -0.416,1.04 c -0.0693,0.208 -0.10401,0.416 -0.104,0.624 l 0.312,0.208 c -10e-6,-0.104 0.0693,-0.24266 0.208,-0.416 -1e-5,-0.104 -0.13868,-0.24266 -0.416,-0.416 m -0.52,1.144 c -0.0693,0.13867 -0.10401,0.24267 -0.104,0.312 0.10399,0.27733 0.20799,0.416 0.312,0.416 l 0.208,-0.416 -0.416,-0.312 m -0.52,1.04 c 0.25999,0.416 0.43332,0.624 0.52,0.624 l 0,-0.208 c -1e-5,-0.104 -0.13868,-0.24267 -0.416,-0.416 l -0.104,0 m -3.848,0.104 0.832,1.04 1.248,-0.104 0.208,0 1.248,0.416 c -0.31201,-0.832 -0.83201,-1.248 -1.56,-1.248 l -1.456,0 -0.52,-0.104"
         id="path3021"
         style="font-family:Cartoon Relief;-inkscape-font-specification:Cartoon Relief" />
      <path
         d="m 284.76701,89.500263 c 0.71066,1.3e-5 1.33466,0.485346 1.872,1.456 l 0.208,0.104 -0.104,0.52 c 0.0693,0.485344 0.10399,0.762677 0.104,0.832 -1e-5,0.433343 -0.55468,0.884009 -1.664,1.352 -1.82001,9e-6 -2.89467,-0.797324 -3.224,-2.392 l 0,-0.208 c 0.38133,-1.109321 1.31733,-1.663987 2.808,-1.664 m -1.664,1.144 c -10e-6,0.693345 0.48533,1.144011 1.456,1.352 0.53732,1.1e-5 0.98799,-0.207989 1.352,-0.624 l 0,-0.104 c -0.13868,-0.762654 -0.48534,-1.143987 -1.04,-1.144 l -0.312,0 c -0.78001,1.3e-5 -1.26534,0.173346 -1.456,0.52 m -0.52,0.624 0,0.208 c 0.34666,0.901344 0.76266,1.35201 1.248,1.352 0.0693,-0.121323 0.10399,-0.25999 0.104,-0.416 -0.52001,1e-5 -0.93601,-0.381323 -1.248,-1.144 l -0.104,0 m 3.224,1.352 0,0.104 c 0.10399,1e-5 0.24266,-0.138657 0.416,-0.416 l 0,-0.312 c -0.27734,0.06934 -0.41601,0.277344 -0.416,0.624 m -1.352,0.208 0,0.208 0.104,0 0,-0.208 -0.104,0 m 0.624,0.104 0,0.208 0.208,0 c -1e-5,-0.138657 -0.0693,-0.20799 -0.208,-0.208 m -1.976,1.144 2.184,0 c 0.53732,9e-6 0.84932,0.138675 0.936,0.416 l 0,0.416 c -10e-6,1.10934 -0.20801,3.640004 -0.624,7.591997 l 0.104,0.208 -0.104,0.208 c 0.13866,0.22534 0.20799,0.39867 0.208,0.52 -0.55468,0.91867 -1.00534,1.57733 -1.352,1.976 l -0.208,0 c -0.26001,-0.208 -0.74534,-0.312 -1.456,-0.312 l -1.04,0 -0.312,0.208 -0.208,0 c -0.34667,-0.17333 -0.52,-0.48533 -0.52,-0.936 0.22533,0 0.468,-1.28266 0.728,-3.848 0.27733,-4.159991 0.58933,-6.239989 0.936,-6.239997 l 0.728,-0.208 m 0.416,0.728 -0.728,7.695997 c 0.27733,0 0.41599,0.13867 0.416,0.416 l 1.872,0 0,-0.624 0.52,-7.071997 0,-0.52 -0.104,0 c -0.17334,8e-6 -0.69334,-0.03466 -1.56,-0.104 -0.27734,0.05201 -0.41601,0.121341 -0.416,0.208 m -1.144,1.456 0.104,0 c 0.27733,-0.08666 0.41599,-0.39866 0.416,-0.936 l 0,-0.52 -0.104,0 c -0.19067,8e-6 -0.32934,0.485341 -0.416,1.456 m 0,0.936 0,0.624 c 0.10399,5e-6 0.20799,-0.103995 0.312,-0.312 l 0,-0.624 c -0.10401,6e-6 -0.20801,0.104006 -0.312,0.312 m -0.624,6.135997 c 0.48533,0 0.72799,-1.52533 0.728,-4.575997 0.0693,-0.138663 0.10399,-0.242662 0.104,-0.312 -0.34667,4e-6 -0.58934,1.28267 -0.728,3.847997 -0.0693,0.60667 -0.10401,0.95334 -0.104,1.04 m 0.832,1.04 0,0.208 0.104,0 c 0.10399,-0.0173 0.34666,-0.364 0.728,-1.04 l -0.104,0 c -0.10401,0 -0.34667,0.27734 -0.728,0.832 m 1.456,-0.832 c -1e-5,0.104 -0.17334,0.45067 -0.52,1.04 l 0.208,0 c -1e-5,-0.156 0.17333,-0.468 0.52,-0.936 l 0,-0.104 -0.208,0 m -2.496,0.936 0,0.104 0.104,0 c 0.0867,0 0.25999,-0.208 0.52,-0.624 l 0,-0.104 c -0.10401,0 -0.31201,0.208 -0.624,0.624"
         id="path3023"
         style="font-family:Cartoon Relief;-inkscape-font-specification:Cartoon Relief" />
      <path
         d="m 291.64969,90.306263 c 0.364,0.208012 1.716,0.312012 4.056,0.312 0.29466,0.156012 1.16133,0.329345 2.6,0.52 l 0.312,0.416 0,0.104 c -10e-6,0.364011 -0.72801,1.230676 -2.184,2.6 -1.85467,2.617339 -3.31067,4.558671 -4.368,5.823997 l -0.208,0.416 0.208,0 c 2.808,-0.34666 5.13066,-0.519994 6.968,-0.519997 0.27732,0.381337 0.41599,0.624007 0.416,0.727997 l -0.104,0.208 c 0.13866,0.832 0.20799,1.49067 0.208,1.976 -0.12134,0 -0.64134,0.34667 -1.56,1.04 l -0.728,-0.104 -0.832,0 c -0.27734,0 -0.55467,0.0347 -0.832,0.104 l -0.416,-0.104 c -4.43733,0.12134 -6.656,0.364 -6.656,0.728 l -0.208,0 c -0.48533,-0.19067 -0.728,-0.572 -0.728,-1.144 -0.13866,-0.74533 -0.208,-1.54266 -0.208,-2.392 l 0,-0.104 c 0.69334,-0.62399 1.42134,-1.733327 2.184,-3.327997 l 1.976,-3.744 -0.104,0 c -1.144,0.208009 -2.14933,0.312009 -3.016,0.312 l -0.52,0 c -0.104,9e-6 -0.208,-0.103991 -0.312,-0.312 0.0693,-0.970657 0.104,-1.594656 0.104,-1.872 -0.104,1.1e-5 -0.208,-0.103989 -0.312,-0.312 0,-0.294655 0.58934,-0.710655 1.768,-1.248 l 0.832,0 c 0.39867,1.2e-5 0.95333,-0.03465 1.664,-0.104 m -1.976,0.728 -0.52,0 0,0.624 c 0,0.294677 0.0693,0.57201 0.208,0.832 0.364,-0.138656 0.64133,-0.20799 0.832,-0.208 1.28267,0.06934 2.42666,0.10401 3.432,0.104 0.27733,0.31201 0.416,0.485343 0.416,0.52 l 0,0.104 c -1.04,1.126675 -1.768,2.374674 -2.184,3.744 -1.73333,2.444003 -2.6,3.726667 -2.6,3.847997 -0.34666,0.48534 -0.52,0.76267 -0.52,0.832 0.0693,0.624 0.208,0.936 0.416,0.936 0.26,-0.13866 0.53733,-0.208 0.832,-0.208 l 1.976,0 c 0.884,0 1.85466,0.0347 2.912,0.104 0.0347,0 0.17333,-0.0347 0.416,-0.104 0.45066,0.0693 0.90133,0.104 1.352,0.104 l 0.416,0 c 0.36399,0 0.95333,-0.0347 1.768,-0.104 l 0,-1.56 c -2.56534,1e-5 -5.096,0.24267 -7.592,0.728 l -0.208,-0.312 0,-0.312 c 0.55467,-0.883994 1.83733,-2.651992 3.848,-5.303997 0,-0.259992 1.03999,-1.473325 3.12,-3.64 l 0,-0.104 c -0.81467,-0.06932 -1.68134,-0.207989 -2.6,-0.416 -2.14934,1.1e-5 -3.39733,-0.103988 -3.744,-0.312 -0.76267,0.06934 -1.42133,0.104012 -1.976,0.104 m -1.456,1.664 0,0.312 0.104,0 c 0.27734,-0.06932 0.416,-0.20799 0.416,-0.416 -0.13866,-0.433323 -0.208,-0.779989 -0.208,-1.04 -0.208,1.1e-5 -0.312,0.381344 -0.312,1.144 m 0.52,0.728 0,0.104 0.832,0 c 0.208,9e-6 0.52,-0.173324 0.936,-0.52 l 0,-0.104 -0.416,0 c -0.12133,1e-5 -0.572,0.173343 -1.352,0.52 m 2.392,-0.104 0.104,0 c 0.104,9e-6 0.208,-0.103991 0.312,-0.312 l -0.104,0 c -0.104,1e-5 -0.208,0.10401 -0.312,0.312 m 1.352,-0.312 0,0.104 0.312,0 0,-0.104 -0.312,0 m -1.248,2.704 0.416,0 c 0,-0.294659 0.312,-0.918659 0.936,-1.872 l 0,-0.104 c -0.19067,0.01734 -0.64133,0.676008 -1.352,1.976 m -0.52,1.144 0.104,0 c 0.0867,6e-6 0.26,-0.173327 0.52,-0.52 l -0.104,0 c -0.34667,0.06934 -0.52,0.242673 -0.52,0.52 m -0.624,0.936 0,0.208 0.208,0 0.104,-0.416 -0.104,0 c -0.13867,0.01734 -0.208,0.08667 -0.208,0.208 m -1.976,3.327997 0,0.208 0.104,0 0,-0.208 -0.104,0 m 1.144,1.768 0,0.52 c 2.53067,-0.13866 4.54133,-0.208 6.032,-0.208 0.27733,-0.104 0.416,-0.208 0.416,-0.312 l 0,-0.104 -0.104,0 c -0.48534,0 -0.76267,0.0347 -0.832,0.104 -0.76267,-0.0693 -1.42134,-0.104 -1.976,-0.104 l -2.808,0 -0.728,0.104 m 8.736,-0.104 c -1e-5,0.0693 -0.0347,0.17334 -0.104,0.312 l 0.104,0 0.208,-0.312 -0.208,0 m -1.352,0.312 0.312,0 0,-0.208 -0.104,0 c -0.13867,0.0173 -0.20801,0.0867 -0.208,0.208"
         id="path3025"
         style="font-family:Cartoon Relief;-inkscape-font-specification:Cartoon Relief" />
      <path
         d="m 309.41216,85.470263 c 2.35733,1.7e-5 3.53599,0.17335 3.536,0.52 0.41599,1.196016 0.62399,2.097348 0.624,2.704 l 0,0.104 c -10e-6,0.485347 -0.24267,0.97068 -0.728,1.456 l -0.728,-0.104 c 1.10933,6.066673 1.66399,9.672003 1.664,10.815997 l 0.312,0 c 0.93599,0 1.49066,0.34667 1.664,1.04 0.0693,0.50267 0.13866,0.81467 0.208,0.936 l -0.104,0.208 0.104,0.624 c -0.32934,0.0347 -0.64134,0.312 -0.936,0.832 -0.22534,0.48533 -0.88401,0.832 -1.976,1.04 -1.56,0 -2.6,0.0347 -3.12,0.104 -0.32934,-0.17333 -0.78,-1.00533 -1.352,-2.496 -0.208,0 -0.312,-0.0693 -0.312,-0.208 l 0,-0.312 c 0.34667,-0.624 0.69333,-0.936 1.04,-0.936 0.45066,-0.13866 0.69333,-0.208 0.728,-0.208 l -0.104,-0.208 0,-0.208 c 0,-0.84933 -0.55467,-4.558658 -1.664,-11.127997 l -0.208,0.104 -0.624,0 c -0.156,1.3e-5 -0.29467,-0.03465 -0.416,-0.104 -0.12133,0.06935 -0.26,0.104013 -0.416,0.104 -0.13867,-0.173321 -0.34667,-1.10932 -0.624,-2.808 0.53733,-1.109317 1.02267,-1.663983 1.456,-1.664 1.17867,-0.13865 1.83733,-0.207983 1.976,-0.208 m -1.872,0.832 -0.104,0 c 0,0.312016 0.13867,1.040015 0.416,2.184 l 0.832,0 0.208,0.104 c 0.0173,-0.138652 0.0867,-0.207986 0.208,-0.208 l 0.104,0 c 0.32933,0.416014 0.676,2.010679 1.04,4.784 0.27733,0.606676 0.728,3.102673 1.352,7.487997 0,0.24267 0.0347,0.55467 0.104,0.936 -1.12667,0.39867 -1.716,0.64134 -1.768,0.728 0.27733,0.64134 0.55466,1.092 0.832,1.352 1.144,-0.0693 2.66933,-0.27733 4.576,-0.624 -1e-5,-0.84933 -0.31201,-1.33466 -0.936,-1.456 -0.83201,0 -1.24801,-0.24266 -1.248,-0.728 -0.26001,-2.859992 -0.84934,-6.569322 -1.768,-11.127997 -0.13867,-0.01732 -0.24267,-0.259987 -0.312,-0.728 l 0,-0.208 c 0,-0.207986 0.38133,-0.311986 1.144,-0.312 l 0.728,0 0,-0.104 -0.52,-2.184 c -1.04,-0.06932 -1.80267,-0.103983 -2.288,-0.104 l -0.936,0 c -0.104,1.7e-5 -0.65867,0.06935 -1.664,0.208 m -0.728,0.728 c 0,0.277349 -0.0693,0.416015 -0.208,0.416 l 0.312,1.664 c 0.27733,-0.103986 0.416,-0.207986 0.416,-0.312 -0.27733,-0.953318 -0.416,-1.542651 -0.416,-1.768 l -0.104,0 m 4.992,2.08 0,0.208 c 0,0.13868 0.27733,0.24268 0.832,0.312 l 0.208,-0.52 -1.04,0 m -3.016,0.312 c 0.27733,1.161345 0.52,2.894677 0.728,5.2 l 0.208,0 0.208,-0.52 c -0.208,-0.727991 -0.52,-2.287989 -0.936,-4.68 l -0.208,0 m 0.936,6.032 c 0.0693,0.416007 0.17333,0.624007 0.312,0.624 l 0.104,-0.208 0,-0.104 -0.104,-0.52 c -0.208,0.06934 -0.312,0.138674 -0.312,0.208 m 0.52,1.144 c 0,0.104006 -0.0693,0.242673 -0.208,0.416 l 0,0.312 c 0.27733,-0.103995 0.416,-0.207994 0.416,-0.312 -0.0693,-0.121328 -0.104,-0.259994 -0.104,-0.416 l -0.104,0 m 0,1.352 0,0.624 c 0.17333,-0.138662 0.312,-0.207996 0.416,-0.208 l 0,-0.208 c 0,-0.138662 -0.0693,-0.207995 -0.208,-0.208 l -0.208,0 m 0.416,1.144 c 0,0.06934 -0.0347,0.173337 -0.104,0.312 l 0.104,0 0.104,-0.208 0,-0.104 -0.104,0 m -0.104,1.351997 c 0.156,1e-5 0.29466,0.0347 0.416,0.104 l 0,-0.52 c -0.104,1e-5 -0.24267,0.13867 -0.416,0.416 m -1.456,2.08 c 0,0.0693 -0.0347,0.17334 -0.104,0.312 0.156,0.0173 0.39867,0.53734 0.728,1.56 l 0.104,0 c 0,-0.12133 0.0693,-0.29467 0.208,-0.52 l -0.728,-1.352 -0.208,0 m 4.784,1.352 c -1e-5,0.24267 -0.10401,0.55467 -0.312,0.936 l 0.104,0 c 0.36399,0 0.74533,-0.312 1.144,-0.936 l -0.936,0 m -1.04,1.04 0,0.104 0.104,0 c -10e-6,-0.156 0.10399,-0.50267 0.312,-1.04 -0.17334,0 -0.31201,0.312 -0.416,0.936 m -1.664,0.104 0.312,0 c 0,-0.052 0.104,-0.32933 0.312,-0.832 l -0.208,0 c -0.17334,0 -0.312,0.27733 -0.416,0.832 m -1.04,0.104 0.208,0 c 0.104,0 0.24266,-0.27733 0.416,-0.832 l -0.104,0 c -0.17334,0 -0.34667,0.27733 -0.52,0.832"
         id="path3027"
         style="font-family:Cartoon Relief;-inkscape-font-specification:Cartoon Relief" />
      <path
         d="m 320.02544,85.470263 c 2.35733,1.7e-5 3.536,0.17335 3.536,0.52 0.416,1.196016 0.624,2.097348 0.624,2.704 l 0,0.104 c 0,0.485347 -0.24267,0.97068 -0.728,1.456 l -0.728,-0.104 c 1.10933,6.066673 1.664,9.672003 1.664,10.815997 l 0.312,0 c 0.93599,0 1.49066,0.34667 1.664,1.04 0.0693,0.50267 0.13866,0.81467 0.208,0.936 l -0.104,0.208 0.104,0.624 c -0.32934,0.0347 -0.64134,0.312 -0.936,0.832 -0.22534,0.48533 -0.88401,0.832 -1.976,1.04 -1.56,0 -2.6,0.0347 -3.12,0.104 -0.32933,-0.17333 -0.78,-1.00533 -1.352,-2.496 -0.208,0 -0.312,-0.0693 -0.312,-0.208 l 0,-0.312 c 0.34667,-0.624 0.69333,-0.936 1.04,-0.936 0.45067,-0.13866 0.69333,-0.208 0.728,-0.208 l -0.104,-0.208 0,-0.208 c 0,-0.84933 -0.55467,-4.558658 -1.664,-11.127997 l -0.208,0.104 -0.624,0 c -0.156,1.3e-5 -0.29466,-0.03465 -0.416,-0.104 -0.12133,0.06935 -0.26,0.104013 -0.416,0.104 -0.13866,-0.173321 -0.34666,-1.10932 -0.624,-2.808 0.53734,-1.109317 1.02267,-1.663983 1.456,-1.664 1.17867,-0.13865 1.83733,-0.207983 1.976,-0.208 m -1.872,0.832 -0.104,0 c 0,0.312016 0.13867,1.040015 0.416,2.184 l 0.832,0 0.208,0.104 c 0.0173,-0.138652 0.0867,-0.207986 0.208,-0.208 l 0.104,0 c 0.32933,0.416014 0.676,2.010679 1.04,4.784 0.27733,0.606676 0.728,3.102673 1.352,7.487997 0,0.24267 0.0347,0.55467 0.104,0.936 -1.12667,0.39867 -1.716,0.64134 -1.768,0.728 0.27733,0.64134 0.55467,1.092 0.832,1.352 1.144,-0.0693 2.66933,-0.27733 4.576,-0.624 -10e-6,-0.84933 -0.31201,-1.33466 -0.936,-1.456 -0.832,0 -1.248,-0.24266 -1.248,-0.728 -0.26,-2.859992 -0.84934,-6.569322 -1.768,-11.127997 -0.13867,-0.01732 -0.24267,-0.259987 -0.312,-0.728 l 0,-0.208 c 0,-0.207986 0.38133,-0.311986 1.144,-0.312 l 0.728,0 0,-0.104 -0.52,-2.184 c -1.04,-0.06932 -1.80267,-0.103983 -2.288,-0.104 l -0.936,0 c -0.104,1.7e-5 -0.65867,0.06935 -1.664,0.208 m -0.728,0.728 c 0,0.277349 -0.0693,0.416015 -0.208,0.416 l 0.312,1.664 c 0.27734,-0.103986 0.416,-0.207986 0.416,-0.312 -0.27733,-0.953318 -0.416,-1.542651 -0.416,-1.768 l -0.104,0 m 4.992,2.08 0,0.208 c 0,0.13868 0.27733,0.24268 0.832,0.312 l 0.208,-0.52 -1.04,0 m -3.016,0.312 c 0.27733,1.161345 0.52,2.894677 0.728,5.2 l 0.208,0 0.208,-0.52 c -0.208,-0.727991 -0.52,-2.287989 -0.936,-4.68 l -0.208,0 m 0.936,6.032 c 0.0693,0.416007 0.17333,0.624007 0.312,0.624 l 0.104,-0.208 0,-0.104 -0.104,-0.52 c -0.208,0.06934 -0.312,0.138674 -0.312,0.208 m 0.52,1.144 c 0,0.104006 -0.0693,0.242673 -0.208,0.416 l 0,0.312 c 0.27733,-0.103995 0.416,-0.207994 0.416,-0.312 -0.0693,-0.121328 -0.104,-0.259994 -0.104,-0.416 l -0.104,0 m 0,1.352 0,0.624 c 0.17333,-0.138662 0.312,-0.207996 0.416,-0.208 l 0,-0.208 c 0,-0.138662 -0.0693,-0.207995 -0.208,-0.208 l -0.208,0 m 0.416,1.144 c 0,0.06934 -0.0347,0.173337 -0.104,0.312 l 0.104,0 0.104,-0.208 0,-0.104 -0.104,0 m -0.104,1.351997 c 0.156,1e-5 0.29466,0.0347 0.416,0.104 l 0,-0.52 c -0.104,1e-5 -0.24267,0.13867 -0.416,0.416 m -1.456,2.08 c 0,0.0693 -0.0347,0.17334 -0.104,0.312 0.156,0.0173 0.39867,0.53734 0.728,1.56 l 0.104,0 c 0,-0.12133 0.0693,-0.29467 0.208,-0.52 l -0.728,-1.352 -0.208,0 m 4.784,1.352 c 0,0.24267 -0.104,0.55467 -0.312,0.936 l 0.104,0 c 0.36399,0 0.74533,-0.312 1.144,-0.936 l -0.936,0 m -1.04,1.04 0,0.104 0.104,0 c 0,-0.156 0.104,-0.50267 0.312,-1.04 -0.17334,0 -0.312,0.312 -0.416,0.936 m -1.664,0.104 0.312,0 c 0,-0.052 0.104,-0.32933 0.312,-0.832 l -0.208,0 c -0.17334,0 -0.312,0.27733 -0.416,0.832 m -1.04,0.104 0.208,0 c 0.104,0 0.24267,-0.27733 0.416,-0.832 l -0.104,0 c -0.17333,0 -0.34667,0.27733 -0.52,0.832"
         id="path3029"
         style="font-family:Cartoon Relief;-inkscape-font-specification:Cartoon Relief" />
    </g>
  </g>
</svg>
