<?xml version="1.0" encoding="UTF-8" standalone="no"?>
<!-- Created with Inkscape (http://www.inkscape.org/) -->

<svg
   xmlns:dc="http://purl.org/dc/elements/1.1/"
   xmlns:cc="http://creativecommons.org/ns#"
   xmlns:rdf="http://www.w3.org/1999/02/22-rdf-syntax-ns#"
   xmlns:svg="http://www.w3.org/2000/svg"
   xmlns="http://www.w3.org/2000/svg"
   version="1.1"
   width="108.25984"
   height="158.65205"
   id="svg3099">
  <defs
     id="defs3101" />
  <metadata
     id="metadata3104">
    <rdf:RDF>
      <cc:Work
         rdf:about="">
        <dc:format>image/svg+xml</dc:format>
        <dc:type
           rdf:resource="http://purl.org/dc/dcmitype/StillImage" />
        <dc:title></dc:title>
      </cc:Work>
    </rdf:RDF>
  </metadata>
  <g
     transform="translate(-320.87008,-453.03616)"
     id="layer1">
    <path
       d="m 332.23451,611.20345 c -1.6172,-1.61719 -0.3684,-5.23092 3.3716,-9.75693 l 4.0384,-4.88694 -2.7318,-2.85132 c -3.2504,-3.39274 -4.1139,-2.80972 -4.5318,3.06002 -0.3973,5.57963 -2.6084,7.28513 -6.5717,5.06904 -4.2051,-2.35118 -4.8221,-6.7491 -3.3897,-24.15824 1.128,-13.70862 1.0901,-15.21582 -0.4251,-16.89008 -1.9506,-2.15542 -1.3428,-5.82346 1.665,-10.04752 1.5308,-2.15001 2.2783,-6.09374 3.4224,-18.061 2.9603,-30.96252 4.4733,-52.60022 4.4796,-64.06036 0.01,-10.53051 0.2205,-11.96406 2.0689,-13.8125 1.1344,-1.13437 2.3719,-1.92077 2.75,-1.74754 14.0788,6.44976 33.6151,20.05181 52.5315,36.57488 4.8706,4.25434 9.2897,7.89482 9.8202,8.08996 0.5305,0.19514 2.9366,-0.69136 5.3469,-1.96999 4.9239,-2.61212 6.4622,-2.07188 4.5063,1.58261 -0.974,1.81999 -1.0289,2.81378 -0.21,3.80053 0.6099,0.73487 0.8475,2.3358 0.528,3.55763 -0.4483,1.71409 0.5478,3.41529 4.3608,7.44797 10.6902,11.30603 17.1935,22.24446 15.6368,26.30105 -0.5732,1.49381 -1.4479,1.75495 -4.9594,1.48073 -1.4266,-0.11141 -4.0593,1.86399 -8,6.00272 -7.5476,7.92693 -16.789,15.59979 -37.8736,31.44541 -9.35,7.02677 -22.9318,17.66308 -30.1817,23.63624 -12.9195,10.6442 -14.3012,11.54408 -15.6516,10.19363 z m 82.0833,-82.58333 c -0.4719,-1.41567 -2.08,-1.26005 -2.5833,0.25 -0.1834,0.55 0.4166,1 1.3333,1 0.9167,0 1.4792,-0.5625 1.25,-1.25 z m -71.75,-4.30902 c 0,-1.34254 -0.3976,-2.44098 -0.8834,-2.44098 -1.0774,0 -1.9492,3.03018 -1.3684,4.75623 0.6709,1.99432 2.2518,0.36894 2.2518,-2.31525 z m 65,-2.5 c 0,-0.51754 -0.45,-0.94098 -1,-0.94098 -0.55,0 -1,0.70156 -1,1.55902 0,0.85746 0.45,1.2809 1,0.94098 0.55,-0.33992 1,-1.04148 1,-1.55902 z m -63,-27.44098 c 0,-0.825 -0.45,-1.5 -1,-1.5 -0.55,0 -1,0.675 -1,1.5 0,0.825 0.45,1.5 1,1.5 0.55,0 1,-0.675 1,-1.5 z m 4,-23.84863 c 0,-0.55 -1.125,0.0569 -2.5,1.34863 -1.375,1.29175 -2.5,2.79863 -2.5,3.34863 0,0.55 1.125,-0.0569 2.5,-1.34863 1.375,-1.29175 2.5,-2.79863 2.5,-3.34863 z"
       id="path4335-9"
       style="fill:#b3b3b3" />
  </g>
</svg>
