<?xml version="1.0" encoding="UTF-8" standalone="no"?>
<!-- Created with Inkscape (http://www.inkscape.org/) -->

<svg
   xmlns:dc="http://purl.org/dc/elements/1.1/"
   xmlns:cc="http://creativecommons.org/ns#"
   xmlns:rdf="http://www.w3.org/1999/02/22-rdf-syntax-ns#"
   xmlns:svg="http://www.w3.org/2000/svg"
   xmlns="http://www.w3.org/2000/svg"
   version="1.1"
   width="113.99385"
   height="129.34947"
   id="svg3169">
  <defs
     id="defs3171" />
  <metadata
     id="metadata3174">
    <rdf:RDF>
      <cc:Work
         rdf:about="">
        <dc:format>image/svg+xml</dc:format>
        <dc:type
           rdf:resource="http://purl.org/dc/dcmitype/StillImage" />
        <dc:title></dc:title>
      </cc:Work>
    </rdf:RDF>
  </metadata>
  <g
     transform="translate(-274.43165,-404.8303)"
     id="layer1">
    <path
       d="m 370.72431,532.13654 c -1.017,-1.12378 -4.0992,-3.26128 -6.8494,-4.75 -5.207,-2.81869 -31.88671,-22.50655 -41.84989,-30.88251 -3.15614,-2.65334 -7.17594,-5.42163 -8.93291,-6.15175 -1.75696,-0.73013 -4.79967,-3.12956 -6.76157,-5.33207 -2.28726,-2.56778 -4.79912,-4.25407 -7.00094,-4.69997 -2.37939,-0.48185 -3.93157,-1.6082 -5.05464,-3.66793 -0.89144,-1.63489 -2.98862,-3.66864 -4.6604,-4.51944 -4.43543,-2.25728 -15.58348,-14.50357 -15.17181,-16.66645 0.2248,-1.18106 1.52311,-1.95612 3.83038,-2.28664 1.91968,-0.275 11.36532,-4.54122 20.99032,-9.48048 9.625,-4.93926 22.45,-11.26859 28.5,-14.06518 6.05,-2.79658 20.03786,-9.60089 31.08406,-15.12068 30.2526,-15.11722 29.5949,-15.58139 29.574,20.87249 -0.01,13.91162 -0.6803,37.58483 -1.4941,52.60714 -1.442,26.6178 -1.5457,27.40853 -4.0718,31.05375 -3.1172,4.49809 -3.1788,5.29209 -0.5922,7.63296 4.2634,3.85826 1.8137,7.5 -5.045,7.5 -3.4078,0 -5.1375,-0.54423 -6.4941,-2.04324 z m 6.8789,-112.17771 c 0.9977,-8.42432 -2.1992,-9.13746 -4.9602,-1.10645 -1.4116,4.10618 -0.4976,6.3274 2.6036,6.3274 1.3501,0 1.8763,-1.16586 2.3566,-5.22095 z"
       id="path4335"
       style="fill:#b3b3b3" />
  </g>
</svg>
