<?xml version="1.0" encoding="UTF-8" standalone="no"?>
<!-- Created with Inkscape (http://www.inkscape.org/) -->

<svg
   xmlns:dc="http://purl.org/dc/elements/1.1/"
   xmlns:cc="http://creativecommons.org/ns#"
   xmlns:rdf="http://www.w3.org/1999/02/22-rdf-syntax-ns#"
   xmlns:svg="http://www.w3.org/2000/svg"
   xmlns="http://www.w3.org/2000/svg"
   version="1.1"
   width="1227.7809"
   height="22.718975"
   id="svg5136">
  <defs
     id="defs5138" />
  <metadata
     id="metadata5141">
    <rdf:RDF>
      <cc:Work
         rdf:about="">
        <dc:format>image/svg+xml</dc:format>
        <dc:type
           rdf:resource="http://purl.org/dc/dcmitype/StillImage" />
        <dc:title></dc:title>
      </cc:Work>
    </rdf:RDF>
  </metadata>
  <g
     transform="translate(-120.39523,-578.14555)"
     id="layer1">
    <path
       d="m 1228.0219,595.18155 c -50.3235,-1.06271 -75.5029,-1.98405 -113.0804,-4.13768 -62.1365,-3.56113 -96.7426,-4.73809 -180.12096,-6.12599 -17.60693,-0.29309 -44.34663,-0.76902 -59.42158,-1.05763 -52.32209,-1.00171 -119.20947,0.83959 -224.03297,6.16729 -51.22928,2.60375 -102.89292,3.54094 -159.97406,2.90197 -28.5692,-0.3198 -59.06996,0.0645 -92.99314,1.17172 -27.76407,0.90619 -65.33155,1.67702 -83.48329,1.71295 -66.25036,0.13116 -116.91115,1.42581 -136.96156,3.5001 -15.25796,1.5785 -22.35465,1.83181 -36.25857,1.29418 -17.30567,-0.66917 -21.25116,-1.44439 -21.29493,-4.18409 -0.0271,-1.69936 -0.56698,-1.67943 22.48961,-0.83022 13.62034,0.50166 20.39587,0.24135 33.98347,-1.30558 13.84854,-1.57662 26.26313,-2.02772 67.46945,-2.4516 56.84147,-0.58472 88.03281,-1.06131 184.97845,-2.82642 37.11894,-0.67582 81.21821,-1.07368 97.99838,-0.8841 33.07088,0.37362 87.87791,-1.16636 124.46001,-3.49709 59.53505,-3.79312 162.43268,-6.88425 214.42447,-6.44148 49.25591,0.41946 103.62151,1.19372 128.54564,1.83068 59.86458,1.5299 74.20098,2.0377 107.07438,3.79274 19.2688,1.02873 41.7908,2.22398 50.0487,2.65615 23.8129,1.24619 93.8736,2.48912 119.0489,2.11202 12.6486,-0.18947 32.663,-1.0154 44.4764,-1.83542 21.5704,-1.4973 31.918,-1.09595 32.7477,1.27017 1.6149,4.60636 -61.9102,8.39667 -120.1241,7.16733 z"
       id="path4263"
       style="fill:#383838" />
  </g>
</svg>
