<?xml version="1.0" encoding="UTF-8" standalone="no"?>
<!-- Created with Inkscape (http://www.inkscape.org/) -->

<svg
   xmlns:dc="http://purl.org/dc/elements/1.1/"
   xmlns:cc="http://creativecommons.org/ns#"
   xmlns:rdf="http://www.w3.org/1999/02/22-rdf-syntax-ns#"
   xmlns:svg="http://www.w3.org/2000/svg"
   xmlns="http://www.w3.org/2000/svg"
   version="1.1"
   width="13.986937"
   height="561.33044"
   id="svg4344">
  <defs
     id="defs4346" />
  <metadata
     id="metadata4349">
    <rdf:RDF>
      <cc:Work
         rdf:about="">
        <dc:format>image/svg+xml</dc:format>
        <dc:type
           rdf:resource="http://purl.org/dc/dcmitype/StillImage" />
        <dc:title></dc:title>
      </cc:Work>
    </rdf:RDF>
  </metadata>
  <g
     transform="translate(-624.43511,-365.98267)"
     id="layer1">
    <path
       d="m 631.66352,925.18978 c -1.43319,-6.8951 -3.67181,-29.2953 -4.58204,-45.8488 -1.37922,-25.0828 -1.25746,-53.9669 0.47003,-111.5 3.55231,-118.3081 3.75464,-228.6666 0.55001,-300 -4.52026,-100.6187 -4.55587,-102.6693 -1.76652,-101.7395 1.85936,0.6198 2.49947,5.6334 4.17994,32.7395 0.8695,14.025 2.23769,35.4 3.04043,47.5 4.11517,62.0297 4.91376,91.4972 4.86459,179.5 -0.0353,63.2268 -0.51389,98.6074 -1.77869,131.5 -0.95169,24.75 -1.97133,72.9 -2.26586,107 -0.29453,34.1 -0.89196,62.3819 -1.32763,62.8488 -0.43566,0.4669 -1.05858,-0.4331 -1.38426,-2 z"
       id="path4423-6"
       style="fill:#a9a9a9" />
  </g>
</svg>
