<?xml version="1.0" encoding="UTF-8" standalone="no"?>
<!-- Created with Inkscape (http://www.inkscape.org/) -->

<svg
   xmlns:dc="http://purl.org/dc/elements/1.1/"
   xmlns:cc="http://creativecommons.org/ns#"
   xmlns:rdf="http://www.w3.org/1999/02/22-rdf-syntax-ns#"
   xmlns:svg="http://www.w3.org/2000/svg"
   xmlns="http://www.w3.org/2000/svg"
   version="1.1"
   width="14.684991"
   height="560.28021"
   id="svg4292">
  <defs
     id="defs4294" />
  <metadata
     id="metadata4297">
    <rdf:RDF>
      <cc:Work
         rdf:about="">
        <dc:format>image/svg+xml</dc:format>
        <dc:type
           rdf:resource="http://purl.org/dc/dcmitype/StillImage" />
        <dc:title></dc:title>
      </cc:Work>
    </rdf:RDF>
  </metadata>
  <g
     transform="translate(-589.80036,-337.93635)"
     id="layer1">
    <path
       d="m 601.83254,897.88464 c -0.0845,-0.825 -0.59895,-4.65 -1.14314,-8.5 -0.59122,-4.1829 -1.34021,-75.2157 -1.86106,-176.5 -0.93447,-181.7199 -1.68896,-221.6481 -5.60267,-296.49659 -3.70563,-70.86911 -3.79123,-72.98441 -3.06967,-75.85931 0.93616,-3.73 3.42993,-3.3537 4.01572,0.6059 0.72675,4.9123 3.47391,46.78361 5.10114,77.75001 4.5176,85.97039 5.83233,175.93779 4.95827,339.29649 -0.39667,74.1381 -1.06405,136.2381 -1.48305,138 -0.41901,1.7619 -0.831,2.5285 -0.91554,1.7035 z"
       id="path4423-2"
       style="fill:#a9a9a9" />
  </g>
</svg>
