<?xml version="1.0" encoding="UTF-8" standalone="no"?>
<!-- Created with Inkscape (http://www.inkscape.org/) -->

<svg
   xmlns:dc="http://purl.org/dc/elements/1.1/"
   xmlns:cc="http://creativecommons.org/ns#"
   xmlns:rdf="http://www.w3.org/1999/02/22-rdf-syntax-ns#"
   xmlns:svg="http://www.w3.org/2000/svg"
   xmlns="http://www.w3.org/2000/svg"
   version="1.1"
   width="427.42133"
   height="218.75879"
   id="svg4994">
  <defs
     id="defs4996" />
  <metadata
     id="metadata4999">
    <rdf:RDF>
      <cc:Work
         rdf:about="">
        <dc:format>image/svg+xml</dc:format>
        <dc:type
           rdf:resource="http://purl.org/dc/dcmitype/StillImage" />
        <dc:title></dc:title>
      </cc:Work>
    </rdf:RDF>
  </metadata>
  <g
     transform="translate(-566.28933,-711.55422)"
     id="layer1">
    <path
       d="m 640.88471,928.93814 c -1.39518,-1.39518 -1.63986,-2.78135 -1.17852,-6.67665 l 0.58222,-4.91593 -4.9224,4.60433 c -4.98556,4.66341 -7.63084,5.58157 -9.80808,3.40433 -2.03861,-2.03861 -1.3475,-5.06852 2.39587,-10.50373 1.97773,-2.87157 3.41934,-5.75065 3.20357,-6.39794 -0.21766,-0.65298 -3.66379,1.72764 -7.7411,5.34761 -9.00454,7.99453 -17.01688,10.9188 -20.01589,7.30521 -0.66134,-0.79686 -2.74164,-1.95683 -4.62289,-2.5777 -3.88379,-1.28177 -5.01664,-3.9772 -3.98431,-9.48002 0.60931,-3.2479 0.47648,-3.49343 -1.88994,-3.49343 -2.95432,0 -6.54531,-3.18695 -6.54531,-5.80887 0,-0.99488 -0.66069,-2.68238 -1.4682,-3.75 -2.07905,-2.74875 -1.87282,-6.15328 0.61674,-10.18147 l 2.14854,-3.47641 -3.14854,-2.4641 c -1.7317,-1.35526 -3.14747,-3.21899 -3.14616,-4.14163 10e-4,-0.92264 1.7774,-4.29053 3.94687,-7.4842 6.71063,-9.87874 2.75171,-12.00372 -5.94925,-3.19332 -5.53934,5.60902 -9.1685,6.9315 -11.8,4.3 -2.61443,-2.61443 -1.2696,-6.36358 4.79655,-13.37199 3.29811,-3.81041 5.99811,-7.34901 6.00001,-7.86356 0.002,-0.51455 -0.9404,-1.94022 -2.09399,-3.16816 -3.24424,-3.45333 -1.78661,-7.08969 8.21971,-20.5058 l 8.9348,-11.97946 -0.64897,-4.89221 c -0.60386,-4.55212 -0.29303,-5.55249 4.47146,-14.39058 2.81623,-5.22411 5.12043,-9.74292 5.12043,-10.04181 0,-0.29889 -3.17106,0.60043 -7.0468,1.99849 -9.08311,3.27646 -11.34987,2.99569 -11.77578,-1.45861 -0.23115,-2.41742 0.54861,-4.77516 2.75095,-8.31797 2.52817,-4.06698 2.96624,-5.61521 2.46889,-8.72546 -0.69779,-4.36378 0.77783,-7.82424 6.75152,-15.83288 3.20544,-4.29737 4.46062,-5.25 6.91737,-5.25 2.37728,0 4.76738,-1.66347 11.49449,-8 4.67121,-4.4 9.07586,-8 9.7881,-8 0.71224,0 3.06264,-1.33748 5.22312,-2.97218 4.28246,-3.24027 8.48588,-3.8681 10.40618,-1.55428 1.96623,2.36916 7.79279,3.04383 9.89069,1.14525 2.23028,-2.01837 3.53371,-2.04374 5.14672,-0.10017 1.04309,1.25685 0.71258,2.3998 -1.91738,6.63052 -4.82976,7.76946 -3.22009,7.86839 3.35889,0.20643 3.23762,-3.77056 9.06052,-10.11807 12.93978,-14.10557 5.89241,-6.05681 7.58641,-7.25 10.29305,-7.25 5.90785,0 6.52407,4.52879 1.66412,12.23013 -2.76964,4.38891 -2.83714,4.76987 -0.84522,4.76987 0.82978,0 4.20087,-2.475 7.49131,-5.5 6.28474,-5.77775 9.54793,-6.80921 12.42857,-3.92857 1.96355,1.96355 1.96187,2.77286 -0.0137,6.59313 -1.90284,3.67969 -0.7208,5.60471 2.412,3.92808 3.62441,-1.93972 6.99168,-1.30894 8.84739,1.65736 0.94621,1.5125 1.83758,2.91849 1.98082,3.12443 0.14323,0.20594 1.66395,-0.80656 3.37938,-2.25 3.44661,-2.90013 4.96923,-3.22071 6.76551,-1.42443 2.00389,2.00389 1.38182,4.19509 -2.77123,9.76144 -5.24399,7.02854 -3.9569,8.67722 1.87549,2.40236 2.52766,-2.71942 8.45699,-9.13005 13.1763,-14.24585 6.95209,-7.53617 9.03974,-9.2366 11,-8.9597 4.06679,0.57444 3.629,4.57734 -1.28213,11.72293 -2.36414,3.43977 -5.1657,7.68618 -6.22569,9.43647 l -1.92724,3.18235 2.51714,-2.27388 c 4.42283,-3.99541 13.48883,-5.55596 15.83739,-2.72612 1.59486,1.92169 4.40514,1.92169 6,0 1.49539,-1.80183 5.13749,-1.96251 6.79999,-0.3 2.04453,2.04453 1.35268,4.68491 -2.84864,10.87164 -4.61561,6.79679 -4.4318,9.00645 0.49586,5.96098 1.80887,-1.11794 4.36553,-2.03262 5.68148,-2.03262 1.70359,0 3.66558,-1.59524 6.81272,-5.53925 9.9721,-12.49704 16.18724,-16.08649 18.54571,-10.71075 0.54292,1.2375 1.39625,2.25 1.89629,2.25 0.50005,0 3.07406,-2.025 5.72003,-4.5 5.36374,-5.01715 9.10872,-5.84058 10.9464,-2.40686 0.61612,1.15123 0.85289,3.15823 0.52617,4.45999 -0.43847,1.74699 -0.0554,2.65515 1.46284,3.46767 1.13128,0.60544 2.48108,2.21655 2.99956,3.58024 1.17299,3.0852 2.52009,2.48304 10.25022,-4.58187 3.02048,-2.76054 6.3668,-5.01917 7.43627,-5.01917 1.06947,0 3.14735,1.35 4.61751,3 1.9861,2.22907 3.55313,3 6.09791,3 2.59304,0 3.5856,0.50635 4.08657,2.08474 0.51359,1.6182 1.20464,1.94847 3.0879,1.4758 1.33443,-0.33492 3.3138,-0.13394 4.39859,0.44663 1.61031,0.86181 2.93489,0.40736 7.21613,-2.4758 2.88408,-1.94225 5.62623,-3.53137 6.09365,-3.53137 0.46743,0 2.80804,-1.40625 5.20136,-3.125 6.41283,-4.60534 11.3657,-3.92411 13.56712,1.86606 0.85448,2.24745 0.9836,2.27139 3.95706,0.73375 2.48458,-1.28483 3.72115,-1.37584 6.45129,-0.47481 2.74319,0.90533 3.96813,0.80928 6.5221,-0.51143 2.29454,-1.18655 3.86541,-1.37944 5.81124,-0.71356 1.46666,0.50191 4.35462,0.70858 6.41768,0.45925 2.95813,-0.35749 4.12072,-0.003 5.5,1.67707 1.57153,1.91424 2.07526,2.00587 4.96488,0.90317 2.88532,-1.10108 3.4593,-0.99855 5.58397,0.99748 2.24802,2.1119 2.55155,2.14805 5.98628,0.71293 3.78605,-1.58191 7.41536,-0.93466 10.71203,1.91038 0.82601,0.71285 2.65243,1.5683 4.05872,1.90099 1.59294,0.37684 3.10096,1.81501 4,3.81473 1.14755,2.55243 2.54409,3.57877 6.81871,5.01121 6.66797,2.23445 8.1244,3.41173 8.1244,6.56721 0,1.96834 0.36359,2.33796 1.75,1.77903 9.06241,-3.65357 14.55292,0.34308 11.04577,8.04044 -1.02234,2.24379 -0.94867,2.78603 0.48773,3.58988 4.05199,2.26761 4.08054,4.63534 0.15315,12.70108 -2.05145,4.21308 -4.83182,9.10886 -6.17861,10.87952 -1.34678,1.77065 -3.28552,5.9081 -4.30831,9.19432 -1.02279,3.28623 -3.02102,8.26689 -4.44052,11.06812 -2.86768,5.6591 -2.69635,6.96777 0.82412,6.29479 2.86793,-0.54824 5.62827,2.54697 7.60032,8.52236 1.21843,3.69187 1.15024,4.32922 -0.80092,7.48626 -1.173,1.89796 -2.13273,3.64486 -2.13273,3.882 0,0.23714 1.5812,0.24657 3.51377,0.021 1.93258,-0.22562 4.18258,0.14484 5,0.82324 1.7602,1.46084 1.9657,6.1091 0.34186,7.73294 -0.83078,0.83078 -0.85333,1.91317 -0.0823,3.95 0.58414,1.54309 1.30091,5.15135 1.59283,8.01833 0.48275,4.74112 0.21713,5.66866 -2.93609,10.25263 -2.51198,3.65178 -3.30222,5.69591 -2.86911,7.42157 0.58209,2.31923 -0.63617,5.19174 -5.77345,13.6131 -4.97005,8.14723 -11.1061,17 -11.78307,17 -0.40119,0 -2.36232,1.29765 -4.35806,2.88367 -4.24626,3.3745 -13.70336,5.14386 -16.24024,3.03844 -1.22674,-1.01811 -2.08261,-0.6588 -4.87305,2.04581 -3.52099,3.41268 -3.56972,3.41858 -12.03311,1.45848 -5.83399,-1.35114 -6.86885,-4.21451 -4.00252,-11.07461 l 1.49748,-3.58398 -2.58859,0.49484 c -1.42373,0.27216 -3.83557,0.0242 -5.35965,-0.55112 -2.51367,-0.9488 -3.3101,-0.60687 -8.57418,3.68123 -5.41794,4.41342 -6.07424,4.68217 -9.88783,4.04896 -2.24659,-0.37302 -5.32097,-1.31092 -6.83196,-2.08423 -2.65372,-1.35814 -2.97705,-1.21647 -9.49629,4.16091 -7.473,6.16408 -10.79877,6.8192 -12.91865,2.54477 -0.97016,-1.95619 -0.92283,-3.1206 0.23996,-5.90354 0.79667,-1.90669 1.31914,-3.59606 1.16105,-3.75415 -0.15809,-0.15809 -4.25353,2.83601 -9.10097,6.65354 -8.89087,7.00188 -12.28929,8.27082 -14.62224,5.45979 -1.24778,-1.50349 -1.00881,-7.49487 0.42954,-10.76881 1.089,-2.47877 -3.35413,-2.34725 -8.44515,0.25 -2.15618,1.1 -5.85075,2.01595 -8.21016,2.03544 -2.35941,0.0195 -5.41484,0.67854 -6.78984,1.46456 -3.1177,1.78224 -7.40189,1.88895 -10.03654,0.25 -1.66297,-1.03449 -2.53663,-0.94829 -5.06747,0.5 -3.19534,1.82855 -6.6769,2.23575 -8.41909,0.98469 -0.5627,-0.40408 -1.81058,-1.97219 -2.77305,-3.48469 -3.0436,-4.78292 -5.66295,-3.73684 -15.6498,6.25 -7.33862,7.33863 -9.55452,9 -12.00397,9 -5.68928,0 -7.03757,-5.5493 -3.12468,-12.86061 0.62973,-1.17667 0.88621,-2.13939 0.56995,-2.13939 -1.76391,0 -8.82003,4.61692 -14.4489,9.45411 -4.86572,4.18133 -7.22649,5.54585 -9.59501,5.54585 -3.5961,0 -6.45142,-2.60171 -6.45142,-5.8784 0,-1.22151 -0.71879,-3.6109 -1.5973,-5.30976 -0.95786,-1.8523 -1.3682,-4.23436 -1.025,-5.95034 0.31476,-1.57382 0.28096,-2.8615 -0.0751,-2.8615 -0.35608,0 -3.15733,2.16901 -6.225,4.82003 -8.86644,7.66218 -13.12966,10.17997 -17.23715,10.17997 -2.79834,0 -4.19693,-0.63773 -5.76196,-2.62734 l -2.06667,-2.62735 -5.63788,4.64142 c -8.3003,6.83326 -12.11183,7.06307 -14.46559,0.87221 -0.84621,-2.22569 -1.00772,-2.25891 -3.84617,-0.7911 -4.41946,2.28539 -7.61316,1.91846 -10.02856,-1.15223 -2.43418,-3.09455 -2.07631,-6.74397 1.18832,-12.11821 3.77324,-6.21151 0.7579,-4.55196 -8.98229,4.94358 -15.27296,14.88933 -20.14196,17.81385 -23.71287,14.24294 z"
       id="path4529"
       style="fill:#a6a6a6" />
  </g>
</svg>
