<?xml version="1.0" encoding="UTF-8" standalone="no"?>
<!-- Created with Inkscape (http://www.inkscape.org/) -->

<svg
   xmlns:dc="http://purl.org/dc/elements/1.1/"
   xmlns:cc="http://creativecommons.org/ns#"
   xmlns:rdf="http://www.w3.org/1999/02/22-rdf-syntax-ns#"
   xmlns:svg="http://www.w3.org/2000/svg"
   xmlns="http://www.w3.org/2000/svg"
   xmlns:sodipodi="http://sodipodi.sourceforge.net/DTD/sodipodi-0.dtd"
   xmlns:inkscape="http://www.inkscape.org/namespaces/inkscape"
   width="64px"
   height="64px"
   id="svg3091"
   version="1.1"
   inkscape:version="0.48.4 r9939"
   sodipodi:docname="ball_2.svg">
  <defs
     id="defs3093" />
  <sodipodi:namedview
     id="base"
     pagecolor="#ffffff"
     bordercolor="#666666"
     borderopacity="1.0"
     inkscape:pageopacity="0.0"
     inkscape:pageshadow="2"
     inkscape:zoom="5.5"
     inkscape:cx="3.6363636"
     inkscape:cy="51.963243"
     inkscape:current-layer="layer1"
     showgrid="true"
     inkscape:document-units="px"
     inkscape:grid-bbox="true"
     inkscape:window-width="1536"
     inkscape:window-height="803"
     inkscape:window-x="-8"
     inkscape:window-y="-8"
     inkscape:window-maximized="1" />
  <metadata
     id="metadata3096">
    <rdf:RDF>
      <cc:Work
         rdf:about="">
        <dc:format>image/svg+xml</dc:format>
        <dc:type
           rdf:resource="http://purl.org/dc/dcmitype/StillImage" />
        <dc:title></dc:title>
      </cc:Work>
    </rdf:RDF>
  </metadata>
  <g
     id="layer1"
     inkscape:label="Layer 1"
     inkscape:groupmode="layer">
    <path
       style="fill:none;stroke:#000000;stroke-width:1.741;stroke-linecap:butt;stroke-linejoin:miter;stroke-miterlimit:4;stroke-opacity:1;stroke-dasharray:none"
       d="M 39.331581,1.9686044 C 30.728107,0.82680614 34.125884,0.73452772 29.168861,1.1026185 c -0.777475,0.05773 -1.560118,0.063711 -2.332429,0.1731953 -0.486648,0.06899 -1.98579,0.5505104 -2.499028,0.6927906 -0.442481,0.1226692 -0.898371,0.19585 -1.332814,0.3463994 -0.401233,0.1390369 -0.773531,0.3562991 -1.166214,0.5195909 -2.247376,0.934542 -0.437894,0.054419 -2.665632,1.2123854 -0.444272,0.23093 -0.888547,0.4618606 -1.332818,0.6927906 -0.444271,0.2309338 -0.906887,0.4271204 -1.332814,0.6927944 -0.409645,0.2555139 -0.768726,0.5905064 -1.166214,0.8659865 -3.344279,2.3177895 0.719273,-0.6753584 -2.665632,1.9051798 -1.21619,0.927179 -2.597632,1.8344836 -3.6652432,2.9443616 -0.3620375,0.376371 -0.6512221,0.822343 -0.9996144,1.212386 -0.3740842,0.418809 -0.8084335,0.778454 -1.166214,1.212385 -0.3108964,0.377073 -0.5345792,0.824578 -0.8330072,1.212386 -0.3687815,0.479224 -0.8171136,0.890686 -1.166214,1.385581 -0.2647712,0.375347 -0.4469046,0.806708 -0.6664109,1.212385 -0.6874171,1.27046 -0.994162,1.766906 -1.4994175,3.117561 -0.1909519,0.510462 -0.3088513,1.048324 -0.4998032,1.558781 -0.1982412,0.529941 -0.4934516,1.01936 -0.6664108,1.558781 -0.1619077,0.504956 -0.2277252,1.037932 -0.3332036,1.558781 -0.24315725,1.20073 -0.43819146,2.073746 -0.49980369,3.290761 -0.0291997,0.576529 0,1.154655 0,1.73198 0,2.017001 -0.0452478,1.26156 0.16660018,3.463957 0.18331391,1.905723 0.11959206,1.314416 0.49980691,3.290761 0.111068,0.577325 0.1890745,1.162603 0.3332035,1.731975 0.1288248,0.508913 1.0310781,3.130304 1.1662146,3.463957 0.5741272,1.417535 0.9088014,1.686297 1.6660172,3.117561 0.2992197,0.565572 0.5092499,1.181213 0.833011,1.73198 0.2895839,0.492621 0.6622699,0.926979 0.9996138,1.385582 1.3248242,1.801052 0.9392848,1.289168 2.3324248,2.944365 0.8372749,0.994769 1.5392205,1.890745 2.4990315,2.771166 0.474787,0.435514 0.999611,0.808256 1.499419,1.212386 1.172624,0.948149 1.732423,1.461643 2.998835,2.251571 0.596678,0.372178 1.222916,0.690573 1.832621,1.039184 1.521453,0.869928 1.641463,1.013001 3.332039,1.73198 0.601614,0.255858 1.22175,0.461861 1.832622,0.692791 2.427686,0.917748 1.205519,0.514992 3.665246,1.212385 0.610875,0.1732 1.208798,0.406811 1.832621,0.519595 0.658827,0.119117 1.335669,0.08697 1.999225,0.173196 1.465423,0.190432 2.36038,0.519595 3.831846,0.519595 0.250185,0 3.16781,-0.315129 3.498638,-0.346395 0.665972,-0.06294 1.336639,-0.07927 1.999225,-0.1732 1.783202,-0.252788 3.492599,-0.896585 5.16466,-1.558781 1.181342,-0.467849 2.232606,-0.897064 3.332043,-1.55878 0.519852,-0.312883 0.991537,-0.705723 1.499418,-1.039187 0.744079,-0.48855 2.460028,-1.474448 3.165436,-2.078373 0.484999,-0.415223 0.87445,-0.93885 1.332817,-1.385581 0.43067,-0.419739 0.929061,-0.764665 1.332814,-1.212386 0.478433,-0.530533 1.688557,-2.3337 2.165825,-2.944366 0.372261,-0.476306 0.825779,-0.884204 1.166214,-1.385581 0.442161,-0.651189 1.329193,-2.62545 1.666021,-3.290761 0.713481,-1.409281 1.049572,-1.731904 1.499418,-3.290757 0.162735,-0.563929 0.170468,-1.168051 0.333204,-1.73198 0.17187,-0.595577 0.521344,-1.128746 0.666407,-1.73198 0.135362,-0.56288 0.08381,-1.158189 0.166603,-1.731975 0.328308,-2.275381 0.389538,-1.171306 0.499807,-3.463957 0.07413,-1.541458 -0.01925,-1.932089 -0.166603,-3.463957 -0.05553,-0.577329 -0.111068,-1.154655 -0.166604,-1.73198 -0.05553,-0.577326 -0.07956,-1.158872 -0.1666,-1.73198 -0.232058,-1.527896 -0.443047,-1.750236 -0.83301,-3.290758 C 62.025755,23.79639 61.953149,23.267096 61.82285,22.752353 61.681271,22.193045 61.043319,20.04992 60.82324,19.461592 59.861917,16.891754 60.525386,18.876711 59.323822,16.517226 57.32536,12.592908 60.109069,17.279505 57.6578,13.572864 57.360992,13.124052 57.115402,12.640455 56.82479,12.187283 56.568968,11.788356 55.232217,9.8804539 54.992169,9.5893126 54.012065,8.4005895 52.699939,7.391481 51.493526,6.4717508 51.108292,6.1780607 50.716051,5.8944257 50.327312,5.605761 49.938576,5.3171001 49.570742,4.9952884 49.161097,4.7397707 48.283189,4.1921714 47.453422,3.8788741 46.495469,3.5273892 45.998662,3.3451015 45.503671,3.1543825 44.996048,3.0077944 43.828069,2.6705098 43.332638,2.6311515 42.163816,2.4881992 41.664379,2.427116 41.159629,2.4058549 40.664398,2.3150038 40.213422,2.2322666 39.788894,1.9435827 39.331581,1.9686044 c -0.632308,0.034584 -1.21173,0.3905035 -1.832622,0.5195948 -0.493113,0.1025299 -1.002689,0.091663 -1.499417,0.1731997 -0.244686,0.040161 -2.852007,0.589895 -3.165435,0.6927906 -0.570357,0.1872413 -1.110682,0.4618606 -1.666021,0.6927906"
       id="path3815"
       inkscape:connector-curvature="0" />
  </g>
</svg>
