<?xml version="1.0" encoding="UTF-8" standalone="no"?>
<!-- Created with Inkscape (http://www.inkscape.org/) -->

<svg
   xmlns:dc="http://purl.org/dc/elements/1.1/"
   xmlns:cc="http://creativecommons.org/ns#"
   xmlns:rdf="http://www.w3.org/1999/02/22-rdf-syntax-ns#"
   xmlns:svg="http://www.w3.org/2000/svg"
   xmlns="http://www.w3.org/2000/svg"
   version="1.1"
   width="1227.8816"
   height="16.151413"
   id="svg5136">
  <defs
     id="defs5138" />
  <metadata
     id="metadata5141">
    <rdf:RDF>
      <cc:Work
         rdf:about="">
        <dc:format>image/svg+xml</dc:format>
        <dc:type
           rdf:resource="http://purl.org/dc/dcmitype/StillImage" />
        <dc:title></dc:title>
      </cc:Work>
    </rdf:RDF>
  </metadata>
  <g
     transform="translate(-120.35611,-579.51044)"
     id="layer1">
    <path
       d="m 1219.9845,595.2211 c -50.3063,-1.68832 -67.5227,1.1765 -105.0706,-1.44418 -62.0873,-4.33342 -96.701,-3.94072 -180.05569,-6.36518 -17.60193,-0.51198 -44.33364,-1.32034 -59.40383,-1.79636 -52.3056,-1.65218 -119.2107,-0.64266 -224.09235,3.38132 -51.25769,1.96659 -102.92899,2.26136 -159.99777,0.91273 -28.56301,-0.67499 -59.0662,-0.66994 -93.00052,0.0154 -27.77318,0.56092 -65.34735,0.8646 -83.49813,0.67487 -66.24687,-0.69256 -116.91984,-0.0279 -136.99449,1.79693 -15.2764,1.38867 -22.3757,1.55373 -36.27186,0.84326 -17.29601,-0.88428 -21.23156,-1.7085 -21.24126,-4.44853 -0.006,-1.69957 -0.54606,-1.68635 22.49819,-0.55053 13.61305,0.67096 20.39129,0.49492 33.99708,-0.88296 13.86707,-1.40431 26.28631,-1.70102 67.49472,-1.61253 56.84434,0.12206 88.0392,0.0333 184.99928,-0.5263 37.12448,-0.21429 81.22529,-0.0638 98.0018,0.33443 33.06368,0.78477 87.88562,-0.0737 124.49388,-1.94936 59.57761,-3.05261 162.50572,-4.86413 214.48798,-3.77497 49.24689,1.03185 103.59866,2.482 128.51295,3.4288 59.84092,2.27411 74.19472,0.96027 107.04382,3.1239 19.2545,1.26823 41.7848,0.74356 50.0367,1.27838 23.7955,1.54216 93.8851,-0.3436 119.0631,-0.40766 12.65,-0.0322 32.6731,-0.60921 44.4958,-1.28228 21.5873,-1.229 31.9292,-0.69902 32.7294,1.67723 1.5574,4.62609 -70.0341,9.52665 -128.2282,7.57361 z"
       id="path4263"
       style="fill:#383838" />
  </g>
</svg>
