<?xml version="1.0" encoding="UTF-8" standalone="no"?>
<!-- Created with Inkscape (http://www.inkscape.org/) -->

<svg
   xmlns:dc="http://purl.org/dc/elements/1.1/"
   xmlns:cc="http://creativecommons.org/ns#"
   xmlns:rdf="http://www.w3.org/1999/02/22-rdf-syntax-ns#"
   xmlns:svg="http://www.w3.org/2000/svg"
   xmlns="http://www.w3.org/2000/svg"
   version="1.1"
   width="187.23474"
   height="248.92683"
   id="svg3364">
  <defs
     id="defs3366" />
  <metadata
     id="metadata3369">
    <rdf:RDF>
      <cc:Work
         rdf:about="">
        <dc:format>image/svg+xml</dc:format>
        <dc:type
           rdf:resource="http://purl.org/dc/dcmitype/StillImage" />
        <dc:title></dc:title>
      </cc:Work>
    </rdf:RDF>
  </metadata>
  <g
     transform="translate(-146.38263,-453.61305)"
     id="layer1">
    <path
       d="m 202.49295,701.57787 c -0.34222,-0.89179 0.62161,-4.6237 2.14183,-8.29313 6.81225,-16.44307 7.20761,-19.60935 9.57382,-76.67169 1.14117,-27.51976 1.63014,-31.28927 4.26829,-32.90456 1.46069,-0.89435 2.22147,-0.59834 4.14443,1.61256 3.26596,3.755 3.94718,11.70394 3.19591,37.292 -1.20214,40.94484 -6.6114,72.5 -12.42812,72.5 -1.0275,0 -2.85572,1.33573 -4.06273,2.96829 -3.03564,4.10593 -6.01466,5.63023 -6.83343,3.49653 z m 41.46886,-13.1778 c -2.30145,-2.63639 -3.92013,-6.05538 -6.05056,-12.78008 -2.00515,-6.32926 -5.22415,-44.16552 -6.29631,-74.00694 -0.7035,-19.58062 -2.89412,-30.04089 -4.9408,-23.59238 -1.71977,5.41851 -7.51777,0.22501 -7.52558,-6.74095 -0.002,-2.1443 -0.43119,-3.19085 -1.20204,-2.9339 -0.65906,0.21968 -4.95422,5.31968 -9.54479,11.33333 -15.75689,20.64151 -29.60692,32.1555 -35.81421,29.77354 -3.08551,-1.18402 -1.24963,-4.36894 5.87356,-10.1895 4.02394,-3.28808 9.8017,-9.05449 12.83946,-12.81424 10.5467,-13.05335 21.84428,-28.49197 21.84428,-29.85114 0,-2.92154 -1.81092,-2.20428 -5.46173,2.16325 -7.53967,9.01986 -24.78165,19.53238 -37.71994,22.99803 -3.47508,0.93083 -6.66642,1.98686 -7.09186,2.34672 -0.42544,0.35986 0.81206,4.13364 2.75,8.38617 4.20533,9.22798 4.45463,11.62107 1.21062,11.62107 -3.13406,0 -6.54983,-3.95864 -11.64863,-13.5 -2.35132,-4.4 -5.42364,-9.22975 -6.82737,-10.73277 -2.48376,-2.65944 -2.50326,-2.78689 -0.72668,-4.75 1.50286,-1.66064 3.07978,-2.01822 8.92058,-2.02281 8.80711,-0.007 12.95681,-1.11951 23.03491,-6.17598 11.11355,-5.57598 15.96539,-9.08858 24.37517,-17.64695 5.19766,-5.28949 7.87446,-8.9394 9.24758,-12.60939 3.62607,-9.69156 11.87407,-14.70982 20.85896,-12.69105 5.53569,1.24379 9.73565,4.55432 13.76083,10.84669 2.6404,4.1276 3.87866,5.26843 5.14719,4.74221 0.91871,-0.38111 10.22034,-2.1657 20.67034,-3.96575 10.45,-1.80006 23.9853,-4.41656 30.0785,-5.81445 12.9572,-2.97265 22.3149,-4.1743 25.7646,-3.30849 6.0534,1.51929 5.2793,15.13559 -1.1935,20.99335 -2.0207,1.8287 -2.0663,1.8153 -2.7226,-0.79958 -0.3671,-1.4627 -0.3941,-4.36897 -0.06,-6.45837 0.3341,-2.0894 0.3802,-4.02622 0.1023,-4.30406 -0.7741,-0.77411 -19.8214,5.75381 -20.2125,6.92728 -0.1891,0.56717 1.3101,1.34147 3.3314,1.72068 2.0214,0.37921 6.7647,1.83464 10.5408,3.23429 9.5436,3.53749 16.0773,11.14757 11.1832,13.02561 -0.9283,0.35622 -8.9158,-0.78754 -17.75,-2.54171 -17.9631,-3.56685 -29.5735,-4.93372 -49.6751,-5.84814 l -13.67968,-0.62228 -1.57015,3.03633 c -0.86358,1.66999 -3.6223,4.8427 -6.13046,7.05048 l -4.56031,4.01414 -0.28449,9.85036 c -0.20477,7.08986 0.089,10.2994 1.0481,11.45267 2.82093,3.39187 4.36156,15.2906 4.90694,37.89769 0.36649,15.19184 0.97993,23.66431 1.88863,26.08463 0.74021,1.97154 2.08462,8.72154 2.98757,15 2.70692,18.82201 1.21876,27.80973 -3.67621,22.20239 z m -7.21699,-135.68702 c 2.86567,-2.86567 3.4,-4.11173 3.4,-7.9288 0,-3.76844 -0.56548,-5.12838 -3.36808,-8.1 -5.18827,-5.50117 -10.05368,-4.58513 -13.70968,2.58121 -2.15296,4.22016 -1.84992,5.37967 1.57776,6.03701 1.73057,0.33188 1.97065,1.08589 1.78214,5.59706 l -0.21787,5.21352 3.56787,0 c 2.72423,0 4.3718,-0.80394 6.96786,-3.4 z m -27.39526,-30.74371 c -1.8124,-1.16051 -6.5374,-6.66543 -10.5,-12.23315 -9.47283,-13.30996 -13.92416,-17.63709 -22.27948,-21.65781 -3.8089,-1.83291 -7.68241,-3.96721 -8.60782,-4.7429 -5.4094,-4.53422 6.05798,-5.89039 14.91999,-1.76449 6.44118,2.99884 14.22329,10.13741 19.48,17.86913 2.17897,3.20489 4.18124,5.60759 4.44949,5.33934 0.26825,-0.26824 -0.53059,-4.01543 -1.77519,-8.32707 -1.82067,-6.30726 -2.27551,-10.43759 -2.32732,-21.13402 l -0.0644,-13.29469 -2.5,0.5971 c -1.375,0.3284 -7.31974,2.85992 -13.21053,5.6256 -10.29622,4.834 -13.71032,5.60854 -14.48356,3.2858 -0.80143,-2.4074 4.33547,-6.63723 13.83753,-11.39412 10.96929,-5.49142 12.32078,-5.78902 15.662,-3.44873 2.10733,1.47603 2.37091,1.42834 4.14482,-0.75 l 1.89438,-2.32628 0.93259,2.5 c 0.51293,1.375 1.22694,7.225 1.58669,13 0.95777,15.37473 3.80989,26.75393 9.71238,38.74983 2.78454,5.65915 4.91441,11.06804 4.73303,12.01976 -0.38324,2.01102 -4.53687,2.90288 -6.12467,1.31507 -1.65302,-1.65302 -2.68466,-1.30128 -2.68466,0.91534 0,2.61403 -2.57343,2.55961 -6.79526,-0.14371 z"
       id="path3220"
       style="fill:#095e15" />
  </g>
</svg>
