<?xml version="1.0" encoding="UTF-8" standalone="no"?>
<!-- Created with Inkscape (http://www.inkscape.org/) -->

<svg
   xmlns:dc="http://purl.org/dc/elements/1.1/"
   xmlns:cc="http://creativecommons.org/ns#"
   xmlns:rdf="http://www.w3.org/1999/02/22-rdf-syntax-ns#"
   xmlns:svg="http://www.w3.org/2000/svg"
   xmlns="http://www.w3.org/2000/svg"
   version="1.1"
   width="135.85152"
   height="148.52994"
   id="svg3312">
  <defs
     id="defs3314" />
  <metadata
     id="metadata3317">
    <rdf:RDF>
      <cc:Work
         rdf:about="">
        <dc:format>image/svg+xml</dc:format>
        <dc:type
           rdf:resource="http://purl.org/dc/dcmitype/StillImage" />
        <dc:title></dc:title>
      </cc:Work>
    </rdf:RDF>
  </metadata>
  <g
     transform="translate(-143.50281,-323.8115)"
     id="layer1">
    <path
       d="m 146.25108,469.91454 c -1.472,-2.24653 -1.4044,-2.9256 0.977,-9.82518 1.5104,-4.3762 2.5613,-9.63366 2.5658,-12.83666 0,-2.98365 0.4643,-8.23987 1.0227,-11.68049 0.8297,-5.1123 0.7359,-6.79584 -0.5131,-9.21111 -2.1703,-4.19688 -4.5172,-16.1383 -4.5172,-22.98429 0,-3.20117 -0.6412,-7.05629 -1.425,-8.56691 -1.8393,-3.54536 -1.186,-5.19584 6.5868,-16.64052 5.0657,-7.45867 6.1634,-9.78889 5.9995,-12.73527 -0.6642,-11.93819 -0.5013,-13.04019 2.686,-18.16744 1.7296,-2.78238 3.4296,-6.19395 3.7778,-7.58127 0.6668,-2.6568 10.3808,-13.75514 13.501,-15.42501 2.9919,-1.60121 8.4044,1.27588 10.4298,5.5441 1.5254,3.21449 1.5829,4.33502 0.479,9.3381 -0.69,3.12691 -2.3482,8.01692 -3.6849,10.86669 -2.4007,5.11815 -2.4084,5.22802 -0.6341,9 1.7091,3.63334 2.0773,3.84884 7.5908,4.44183 6.6919,0.71976 9.9478,3.11657 12.7788,9.40716 2.4124,5.3604 3.2763,15.97029 1.6665,20.46621 -1.0702,2.98892 -2.076,3.7887 -6.9271,5.50841 -3.1213,1.1065 -5.9397,2.27644 -6.2631,2.59986 -0.3234,0.32343 0.1072,2.25195 0.9569,4.28561 0.8497,2.03366 1.1984,4.24025 0.7748,4.90354 -0.4235,0.66329 -1.059,7.95598 -1.4121,16.20598 -0.699,16.33316 -1.8716,21.16559 -5.4677,22.53282 -1.3271,0.50454 -3.4056,2.99115 -4.7993,5.7414 -3.3072,6.52638 -4.9768,7.83731 -8.144,6.39424 -3.546,-1.61567 -3.1586,-4.10052 2.5975,-16.65809 4.932,-10.75981 5.0575,-11.27176 6.0015,-24.48163 0.9135,-12.78307 0.8582,-13.63536 -1.0526,-16.21989 -3.5841,-4.84771 -2.5136,-7.98865 3.858,-11.31966 8.5874,-4.48946 9.4857,-5.59855 8.8808,-10.96517 -0.738,-6.54784 -3.1179,-8.70032 -9.8193,-8.88116 l -5.2938,-0.14286 -1.9449,-10 c -1.0697,-5.5 -1.9562,-12.1375 -1.97,-14.75 -0.014,-2.6125 -0.3534,-4.75 -0.7546,-4.75 -0.4012,0 -2.3592,2.3664 -4.3512,5.25866 -2.821,4.09595 -3.6282,6.25171 -3.6509,9.75 -0.043,6.67879 -3.1941,17.00193 -6.78,22.2139 -4.6117,6.70286 -5.2564,16.91379 -2.1009,33.27744 2.5584,13.26785 2.7232,16.32052 1.6856,31.2368 -0.704,10.12106 -2.7086,19.17645 -5.4265,24.5132 -1.8035,3.54139 -5.6761,3.70676 -7.8843,0.33666 z m 50.017,-23.4382 c -1.0457,-1.04573 -0.3543,-2.46517 2.4995,-5.13103 2.9378,-2.74427 2.9578,-2.83234 1.3653,-6.02442 -3.6992,-7.41531 0.3745,-23.25102 8.2134,-31.92776 5.0441,-5.58323 8.5413,-7.35742 11.9489,-6.06187 1.4417,0.54814 4.167,0.99662 6.0562,0.99662 3.1409,0 3.4349,-0.25379 3.4349,-2.96505 0,-1.63078 0.7267,-5.10561 1.615,-7.72185 0.8882,-2.61623 1.7022,-6.01665 1.8088,-7.55648 0.2617,-3.77987 8.5112,-12.05216 14.6544,-14.69491 12.0268,-5.17379 22.1205,-5.07156 27.4492,0.27801 2.6342,2.64455 3.2548,4.1925 3.8028,9.48549 0.8178,7.89912 -0.1938,9.99215 -7.4934,15.5034 -6.5901,4.97557 -11.4984,10.41593 -11.9841,13.28321 -0.4866,2.87178 0.1966,3.0572 3.4383,0.93319 2.2671,-1.48549 3.2525,-1.61843 5.25,-0.7083 4.5967,2.0944 3.2403,5.28164 -5.791,13.60789 -8.9621,8.26247 -16.283,12.5554 -21.4112,12.5554 -4.4664,0 -6.0252,-2.85767 -3.3877,-6.21067 1.3045,-1.65841 2.0052,-4.40565 2.2178,-8.69493 0.2607,-5.26123 0,-6.49776 -1.6202,-7.68245 -2.8728,-2.10063 -3.2201,-1.82562 -3.8928,3.08187 -0.3388,2.4716 -1.7701,6.77142 -3.1807,9.55514 -2.3088,4.55619 -2.4406,5.40462 -1.3209,8.50109 1.1024,3.04864 1.0129,3.75305 -0.7867,6.19486 -2.4428,3.31441 -11.518,8.96857 -16.3676,10.19753 -4.1268,1.04581 -15.8244,1.89986 -16.5182,1.20602 z m 20.6958,-22.5325 c 3.3159,-3.22033 5.7861,-7.41782 7.2801,-12.37089 0.9387,-3.11175 -1.7273,-3.96381 -6.0108,-1.92113 -3.8147,1.81911 -6.8354,6.94298 -7.915,13.42606 -0.6293,3.77926 -0.4934,4.25 1.2268,4.25 1.064,0 3.5025,-1.52282 5.4189,-3.38404 z m 38.5932,-12.42846 c 0.2177,-0.65313 -0.3166,-1.1875 -1.1875,-1.1875 -0.8708,0 -1.5833,0.7125 -1.5833,1.58333 0,1.76593 2.1528,1.45839 2.7708,-0.39583 z m 1.2068,-21.41005 c 8.8658,-8.9592 10.0793,-10.59669 9.8192,-13.25 -0.2505,-2.55486 -0.7672,-3.07361 -3.3103,-3.32317 -2.557,-0.25093 -3.1871,0.16416 -4.1595,2.74034 -1.3392,3.54787 -4.6024,5.05538 -10.9431,5.05538 -4.1737,0 -4.5868,0.24141 -5.9349,3.46788 -2.2458,5.37499 -1.8435,9.51091 1.2381,12.7274 1.4779,1.5426 2.7968,2.80472 2.9308,2.80472 0.1341,0 4.7959,-4.60015 10.3597,-10.22255 z"
       id="path3224"
       style="fill:#085e15;fill-opacity:1" />
  </g>
</svg>
