<?xml version="1.0" encoding="UTF-8" standalone="no"?>
<!-- Created with Inkscape (http://www.inkscape.org/) -->

<svg
   xmlns:dc="http://purl.org/dc/elements/1.1/"
   xmlns:cc="http://creativecommons.org/ns#"
   xmlns:rdf="http://www.w3.org/1999/02/22-rdf-syntax-ns#"
   xmlns:svg="http://www.w3.org/2000/svg"
   xmlns="http://www.w3.org/2000/svg"
   version="1.1"
   width="133.25607"
   height="112.96365"
   id="svg3256">
  <defs
     id="defs3258" />
  <metadata
     id="metadata3261">
    <rdf:RDF>
      <cc:Work
         rdf:about="">
        <dc:format>image/svg+xml</dc:format>
        <dc:type
           rdf:resource="http://purl.org/dc/dcmitype/StillImage" />
        <dc:title></dc:title>
      </cc:Work>
    </rdf:RDF>
  </metadata>
  <g
     transform="translate(-207.65768,-367.30893)"
     id="layer1">
    <path
       d="m 228.03092,479.34848 c -2.7682,-1.08078 -4.4295,-4.08528 -3.284,-5.93883 0.3525,-0.57037 2.2581,-1.8119 4.2346,-2.75895 l 3.5937,-1.7219 0.3349,-7.49999 c 0.1842,-4.125 1.0642,-12.35603 1.9555,-18.29117 0.8912,-5.93515 1.3279,-11.08378 0.9702,-11.44141 -0.3576,-0.35763 -3.0016,1.63223 -5.8755,4.4219 -11.216,10.88734 -19.1026,14.21101 -21.7929,9.18419 -1.3658,-2.552 0.1993,-6.87351 2.4893,-6.87351 4.3827,0 27.8226,-24.29853 43.5876,-45.1843 5.1129,-6.77363 10.8938,-14.0032 12.8464,-16.06571 3.4308,-3.62382 6.7223,-4.7068 8.6944,-2.86071 1.4836,1.3888 12.5246,4.29607 14.0672,3.70411 0.8559,-0.32845 1.3828,-2.04415 1.3828,-4.503 0,-2.1848 0.5625,-4.33642 1.25,-4.78138 0.6875,-0.44496 4.4,-0.89165 8.25,-0.99264 3.85,-0.10099 8.271,-0.27638 9.8245,-0.38975 5.099,-0.37211 5.6058,1.22464 4.6259,14.57338 l -0.8809,12 3.7017,3 c 10.1627,8.23637 19.2475,16.79426 21.2251,19.99405 2.7198,4.40068 2.0894,8.19535 -1.5115,9.09913 -3.9093,0.98115 -6.8874,-0.22693 -14.0018,-5.67977 -3.6414,-2.791 -7.1955,-4.854 -7.8979,-4.58444 -0.84,0.32232 -1.502,3.68767 -1.9338,9.83057 -0.3612,5.13725 -1.3292,13.16501 -2.1511,17.83945 -0.8218,4.67445 -1.989,13.44761 -2.5937,19.49592 -0.6047,6.04831 -1.5218,11.78626 -2.0381,12.751 -1.5795,2.95122 -6.4494,2.23988 -9.0867,-1.32728 -2.7466,-3.715 -2.2582,-3.74271 -26.7817,1.51965 -18.7181,4.01659 -37.879,5.56058 -43.2042,3.48139 z m 24.1863,-12.25015 c 4.3594,-1.13751 4.5044,-1.30366 5.2985,-6.07096 0.5274,-3.16598 0.4452,-5.2727 -0.2321,-5.95 -2.7229,-2.72293 1.0287,-15.31106 5.1802,-17.38145 3.4266,-1.70884 15.1186,-3.24728 19.3996,-2.55258 1.9501,0.31647 3.7717,1.1643 4.0479,1.88407 0.5118,1.33369 -1.8551,8.30536 -5.5684,16.4014 -3.4865,7.60164 -3.1423,8.21602 4.1422,7.3942 11.9144,-1.34415 10.8019,0.0806 13.8455,-17.73166 1.4771,-8.64474 2.925,-16.63281 3.2174,-17.75129 0.3108,-1.18842 -0.021,-2.24554 -0.7971,-2.54355 -0.7309,-0.28048 -6.6585,0.73174 -13.1724,2.24938 -9.8212,2.28819 -14.1522,2.76083 -25.3649,2.76808 l -13.5215,0.009 -1.6544,10.05305 c -0.91,5.52918 -3.0378,14.16943 -4.7285,19.20055 -1.6908,5.03087 -3.0741,9.64337 -3.0741,10.24973 0,1.42218 7.1384,1.29682 12.9821,-0.22797 z m 16.6236,-3.43483 c 0.6082,-0.40408 1.4266,-2.53469 1.8187,-4.73469 0.3921,-2.2 1.807,-6.41688 3.1442,-9.37084 1.3373,-2.95397 2.4314,-5.54147 2.4314,-5.75 0,-0.20854 -1.7449,-0.37916 -3.8776,-0.37916 -5.0858,0 -6.5303,1.91263 -6.6967,8.86726 -0.074,3.098 -0.461,7.09524 -0.8597,8.88274 -0.6132,2.74913 -0.443,3.24764 1.1045,3.23469 1.0062,-0.008 2.3271,-0.34592 2.9352,-0.75 z m 17.8943,-50.5552 c 6.05,-1.42862 13.025,-2.96767 15.5,-3.42012 2.8718,-0.52499 4.5,-1.3442 4.5,-2.26421 0,-2.24899 -30.4123,-21.99516 -33.8761,-21.99516 -0.7054,0 -21.6289,27.91781 -22.4005,29.88851 -0.9342,2.3858 22.9868,0.92916 36.2766,-2.20902 z m 19.0183,-30.78761 c 0.8392,-4.96751 -1.322,-8.13047 -4.2871,-6.27409 -2.4631,1.54212 -2.8651,7.44556 -0.6188,9.08807 2.9703,2.17195 4.1808,1.47763 4.9059,-2.81398 z"
       id="path3222"
       style="fill:#1e1eaa" />
  </g>
</svg>
