<?xml version="1.0" encoding="UTF-8" standalone="no"?>
<!-- Created with Inkscape (http://www.inkscape.org/) -->

<svg
   xmlns:dc="http://purl.org/dc/elements/1.1/"
   xmlns:cc="http://creativecommons.org/ns#"
   xmlns:rdf="http://www.w3.org/1999/02/22-rdf-syntax-ns#"
   xmlns:svg="http://www.w3.org/2000/svg"
   xmlns="http://www.w3.org/2000/svg"
   version="1.1"
   width="128.82077"
   height="151.78462"
   id="svg3427">
  <defs
     id="defs3429" />
  <metadata
     id="metadata3432">
    <rdf:RDF>
      <cc:Work
         rdf:about="">
        <dc:format>image/svg+xml</dc:format>
        <dc:type
           rdf:resource="http://purl.org/dc/dcmitype/StillImage" />
        <dc:title></dc:title>
      </cc:Work>
    </rdf:RDF>
  </metadata>
  <g
     transform="translate(-292.73247,-342.18416)"
     id="layer1">
    <path
       d="m 304.18846,492.5422 c -1.65,-0.74898 -3.7613,-1.59601 -4.6917,-1.8823 -5.4869,-1.68824 -6.6622,-13.04218 -6.7537,-65.24314 -0.053,-30.00728 0.019,-31.20896 2.018,-33.75 2.2379,-2.84507 5.7088,-3.41282 8.8544,-1.44837 2.3503,1.46776 11.7065,-2.64772 56.4109,-24.81335 45.3781,-22.49965 56.4352,-26.39054 60.1054,-21.15063 2.2846,3.26174 1.9503,4.67008 -1.9906,8.38684 -3.1551,2.97568 -3.4153,3.59215 -2.3531,5.57682 1.7752,3.31692 0.4753,29.1611 -2.1092,41.93605 -1.9367,9.57258 -7.3281,23.87778 -8.9992,23.87778 -0.9194,0 -1.9739,-8.81448 -1.9738,-16.5 1e-4,-5.89703 3.4067,-39.36368 4.5551,-44.75 0.3948,-1.85153 0.176,-2.75 -0.6696,-2.75 -0.6907,0 -15.464,7.03257 -32.8294,15.62794 -37.2071,18.4164 -43.6103,21.28823 -55.5735,24.92465 -4.95,1.50464 -9.2965,3.00834 -9.6589,3.34156 -1.0252,0.94257 0.8014,75.14836 1.8763,76.22321 0.5964,0.59647 4.9701,-1.51558 11.8086,-5.70239 5.9737,-3.65736 22.2695,-12.82426 36.2128,-20.37088 13.9434,-7.54663 26.5264,-14.59824 27.9623,-15.67026 l 2.6107,-1.94914 -2.9589,-3.46235 c -1.6274,-1.90429 -5.1125,-6.52401 -7.7447,-10.26605 -2.6323,-3.74205 -5.3068,-6.6301 -5.9434,-6.4179 -0.6366,0.2122 -2.0989,4.08509 -3.2496,8.60641 -1.1506,4.52132 -2.7755,8.90402 -3.6108,9.73932 -1.3583,1.35832 -1.6922,1.3452 -3.1616,-0.12412 -1.2639,-1.26392 -1.6428,-3.58696 -1.6428,-10.07143 0,-4.63571 -0.3829,-8.42857 -0.8509,-8.42857 -1.0371,0 -13.749,9.54355 -14.6467,10.99611 -0.3529,0.57093 1.8023,3.84286 4.7892,7.27097 8.1899,9.39967 9.5475,12.73291 5.186,12.73291 -1.5528,0 -4.1903,-1.5375 -6.8618,-4 -2.3867,-2.19999 -4.6043,-3.99999 -4.928,-3.99999 -0.3237,0 -0.8918,2.6809 -1.2625,5.95755 -0.4558,4.02873 -1.312,6.53485 -2.6443,7.74064 -1.9033,1.7224 -2.0478,1.69296 -4.2483,-0.86523 -3.1943,-3.71363 -3.7622,-9.36925 -2.5514,-25.40769 1.7684,-23.42426 2.3208,-25.42527 7.0187,-25.42527 3.5455,0 5,2.29091 5,7.87524 0,2.2037 0.4229,4.2681 0.9398,4.58756 0.5169,0.31946 2.9754,-0.85398 5.4633,-2.60765 2.8916,-2.03818 5.7093,-3.18292 7.8102,-3.17307 3.6775,0.0172 4.7387,-1.01936 4.7933,-4.68208 0.02,-1.375 0.8921,-4.38266 1.9367,-6.68368 3.2086,-7.06697 10.9764,-9.48751 15.6021,-4.86177 2.9903,2.99025 3.0822,5.39488 0.4067,10.63931 l -2.0479,4.01419 4.0692,4.8602 c 5.5113,6.58269 11.0266,15.91795 11.0266,18.6639 0,3.50306 1.3191,3.56913 7.634,0.38235 22.5892,-11.39946 9.2874,4.70018 -19.2442,23.29194 -16.4599,10.72566 -71.8986,40.81389 -74.8616,40.6296 -0.5655,-0.0352 -2.3782,-0.67676 -4.0282,-1.42574 z m 69.934,-91.71957 c 1.9247,-2.74788 0.5744,-4.4008 -2.3267,-2.84819 -2.0831,1.11484 -2.7337,3.09777 -1.4407,4.39079 1.1537,1.1537 2.1704,0.7374 3.7674,-1.5426 z"
       id="path3209"
       style="fill:#A52A2A" />
  </g>
</svg>
