<?xml version="1.0" encoding="UTF-8" standalone="no"?>
<!-- Created with Inkscape (http://www.inkscape.org/) -->

<svg
   xmlns:dc="http://purl.org/dc/elements/1.1/"
   xmlns:cc="http://creativecommons.org/ns#"
   xmlns:rdf="http://www.w3.org/1999/02/22-rdf-syntax-ns#"
   xmlns:svg="http://www.w3.org/2000/svg"
   xmlns="http://www.w3.org/2000/svg"
   version="1.1"
   width="15.908849"
   height="539.37469"
   id="svg4511">
  <defs
     id="defs4513" />
  <metadata
     id="metadata4516">
    <rdf:RDF>
      <cc:Work
         rdf:about="">
        <dc:format>image/svg+xml</dc:format>
        <dc:type
           rdf:resource="http://purl.org/dc/dcmitype/StillImage" />
        <dc:title></dc:title>
      </cc:Work>
    </rdf:RDF>
  </metadata>
  <g
     transform="translate(-404.35986,-359.79455)"
     id="layer1">
    <path
       d="m 406.41335,853.6383 c 0.37895,-25.46813 0.83774,-64.98463 1.01949,-87.8145 0.18184,-22.82988 1.06417,-66.24799 1.96081,-96.4847 2.65567,-89.54004 2.34351,-131.62091 -1.58258,-213.64447 -3.72058,-77.72853 -3.84022,-81.13418 -3.07418,-87.45858 0.73886,-6.09983 2.75197,-9.28207 5.21859,-8.24924 1.05044,0.43972 1.47303,3.59907 1.6856,12.60205 0.15604,6.60839 1.62529,34.04406 3.26483,60.96821 5.92638,97.31761 6.16612,108.44828 4.40523,204.56643 -1.89887,103.65291 -4.6684,195.48186 -6.40698,212.40339 -2.61159,25.43251 -5.54656,47.84321 -6.36939,48.6357 -0.44624,0.42976 -0.50127,-20.05618 -0.12232,-45.52431 z"
       id="path4423-13"
       style="fill:#a9a9a9" />
  </g>
</svg>
