<?xml version="1.0" encoding="UTF-8" standalone="no"?>
<!-- Created with Inkscape (http://www.inkscape.org/) -->

<svg
   xmlns:dc="http://purl.org/dc/elements/1.1/"
   xmlns:cc="http://creativecommons.org/ns#"
   xmlns:rdf="http://www.w3.org/1999/02/22-rdf-syntax-ns#"
   xmlns:svg="http://www.w3.org/2000/svg"
   xmlns="http://www.w3.org/2000/svg"
   version="1.1"
   width="12.345184"
   height="529.44812"
   id="svg4222">
  <defs
     id="defs4224" />
  <metadata
     id="metadata4227">
    <rdf:RDF>
      <cc:Work
         rdf:about="">
        <dc:format>image/svg+xml</dc:format>
        <dc:type
           rdf:resource="http://purl.org/dc/dcmitype/StillImage" />
        <dc:title></dc:title>
      </cc:Work>
    </rdf:RDF>
  </metadata>
  <g
     transform="translate(-568.11312,-379.06669)"
     id="layer1">
    <path
       d="m 573.49559,903.79999 c -3.05459,-21.249 -3.52551,-67.0573 -1.83368,-178.3708 1.24203,-81.7184 0.7064,-146.6934 -1.9346,-234.6825 -2.04396,-68.0975 -2.08628,-76.5755 -0.46909,-93.9684 1.15619,-12.435 1.72557,-15.4306 3.17235,-16.6904 0.96978,-0.8444 2.16641,-1.2462 2.65918,-0.8929 0.49276,0.3534 0.70789,7.5419 0.47805,15.9747 -0.46937,17.2217 0.0796,43.9944 1.88828,92.0977 3.68705,98.0577 3.91679,173.1369 1.02615,335.3565 -1.22773,68.8987 -1.82052,85.1557 -3.13029,85.8461 -0.67758,0.3572 -1.3921,-1.4404 -1.85635,-4.67 z"
       id="path4423-4"
       style="fill:#a9a9a9" />
  </g>
</svg>
