<?xml version="1.0" encoding="UTF-8" standalone="no"?>
<!-- Created with Inkscape (http://www.inkscape.org/) -->

<svg
   xmlns:dc="http://purl.org/dc/elements/1.1/"
   xmlns:cc="http://creativecommons.org/ns#"
   xmlns:rdf="http://www.w3.org/1999/02/22-rdf-syntax-ns#"
   xmlns:svg="http://www.w3.org/2000/svg"
   xmlns="http://www.w3.org/2000/svg"
   version="1.1"
   width="16.539986"
   height="581.23828"
   id="svg4396">
  <defs
     id="defs4398" />
  <metadata
     id="metadata4401">
    <rdf:RDF>
      <cc:Work
         rdf:about="">
        <dc:format>image/svg+xml</dc:format>
        <dc:type
           rdf:resource="http://purl.org/dc/dcmitype/StillImage" />
        <dc:title></dc:title>
      </cc:Work>
    </rdf:RDF>
  </metadata>
  <g
     transform="translate(-494.58715,-476.02876)"
     id="layer1">
    <path
       d="m 503.72887,1037.3488 c -0.30257,-11.5186 -0.37213,-38.50418 -0.15514,-59.96808 0.217,-21.464 0.34621,-57.706 0.28725,-80.5379 -0.059,-22.8319 -0.18513,-68.9707 -0.28018,-102.5306 -0.19339,-68.2801 -2.41864,-157.6626 -4.97757,-199.9386 -3.71992,-61.4571 -4.51154,-81.8824 -3.7576,-96.9457 0.84834,-16.947 1.531,-20.9103 3.6833,-21.3864 1.30949,-0.2895 1.61795,4.1334 2.47232,35.4457 0.53691,19.6772 1.99751,49.704 3.2458,66.7263 5.27973,71.996 8.51017,281.1737 6.03034,390.4809 -1.30047,57.32488 -2.92912,86.35508 -4.96527,88.50558 -0.72983,0.7708 -1.19505,-5.0624 -1.58325,-19.8512 z"
       id="path4423-9"
       style="fill:#a9a9a9" />
  </g>
</svg>
