<?xml version="1.0" encoding="UTF-8" standalone="no"?>
<!-- Created with Inkscape (http://www.inkscape.org/) -->

<svg
   xmlns:dc="http://purl.org/dc/elements/1.1/"
   xmlns:cc="http://creativecommons.org/ns#"
   xmlns:rdf="http://www.w3.org/1999/02/22-rdf-syntax-ns#"
   xmlns:svg="http://www.w3.org/2000/svg"
   xmlns="http://www.w3.org/2000/svg"
   version="1.1"
   width="138.66331"
   height="812.94556"
   id="svg2">
  <defs
     id="defs4" />
  <metadata
     id="metadata7">
    <rdf:RDF>
      <cc:Work
         rdf:about="">
        <dc:format>image/svg+xml</dc:format>
        <dc:type
           rdf:resource="http://purl.org/dc/dcmitype/StillImage" />
        <dc:title></dc:title>
      </cc:Work>
    </rdf:RDF>
  </metadata>
  <g
     transform="translate(-281.52552,-28.755576)"
     id="layer1">
    <g
       transform="translate(-7.1428714,-313.42858)"
       id="layer1-1">
      <path
         d="m 304.18846,492.5422 c -1.65,-0.74898 -3.7613,-1.59601 -4.6917,-1.8823 -5.4869,-1.68824 -6.6622,-13.04218 -6.7537,-65.24314 -0.053,-30.00728 0.019,-31.20896 2.018,-33.75 2.2379,-2.84507 5.7088,-3.41282 8.8544,-1.44837 2.3503,1.46776 11.7065,-2.64772 56.4109,-24.81335 45.3781,-22.49965 56.4352,-26.39054 60.1054,-21.15063 2.2846,3.26174 1.9503,4.67008 -1.9906,8.38684 -3.1551,2.97568 -3.4153,3.59215 -2.3531,5.57682 1.7752,3.31692 0.4753,29.1611 -2.1092,41.93605 -1.9367,9.57258 -7.3281,23.87778 -8.9992,23.87778 -0.9194,0 -1.9739,-8.81448 -1.9738,-16.5 1e-4,-5.89703 3.4067,-39.36368 4.5551,-44.75 0.3948,-1.85153 0.176,-2.75 -0.6696,-2.75 -0.6907,0 -15.464,7.03257 -32.8294,15.62794 -37.2071,18.4164 -43.6103,21.28823 -55.5735,24.92465 -4.95,1.50464 -9.2965,3.00834 -9.6589,3.34156 -1.0252,0.94257 0.8014,75.14836 1.8763,76.22321 0.5964,0.59647 4.9701,-1.51558 11.8086,-5.70239 5.9737,-3.65736 22.2695,-12.82426 36.2128,-20.37088 13.9434,-7.54663 26.5264,-14.59824 27.9623,-15.67026 l 2.6107,-1.94914 -2.9589,-3.46235 c -1.6274,-1.90429 -5.1125,-6.52401 -7.7447,-10.26605 -2.6323,-3.74205 -5.3068,-6.6301 -5.9434,-6.4179 -0.6366,0.2122 -2.0989,4.08509 -3.2496,8.60641 -1.1506,4.52132 -2.7755,8.90402 -3.6108,9.73932 -1.3583,1.35832 -1.6922,1.3452 -3.1616,-0.12412 -1.2639,-1.26392 -1.6428,-3.58696 -1.6428,-10.07143 0,-4.63571 -0.3829,-8.42857 -0.8509,-8.42857 -1.0371,0 -13.749,9.54355 -14.6467,10.99611 -0.3529,0.57093 1.8023,3.84286 4.7892,7.27097 8.1899,9.39967 9.5475,12.73291 5.186,12.73291 -1.5528,0 -4.1903,-1.5375 -6.8618,-4 -2.3867,-2.19999 -4.6043,-3.99999 -4.928,-3.99999 -0.3237,0 -0.8918,2.6809 -1.2625,5.95755 -0.4558,4.02873 -1.312,6.53485 -2.6443,7.74064 -1.9033,1.7224 -2.0478,1.69296 -4.2483,-0.86523 -3.1943,-3.71363 -3.7622,-9.36925 -2.5514,-25.40769 1.7684,-23.42426 2.3208,-25.42527 7.0187,-25.42527 3.5455,0 5,2.29091 5,7.87524 0,2.2037 0.4229,4.2681 0.9398,4.58756 0.5169,0.31946 2.9754,-0.85398 5.4633,-2.60765 2.8916,-2.03818 5.7093,-3.18292 7.8102,-3.17307 3.6775,0.0172 4.7387,-1.01936 4.7933,-4.68208 0.02,-1.375 0.8921,-4.38266 1.9367,-6.68368 3.2086,-7.06697 10.9764,-9.48751 15.6021,-4.86177 2.9903,2.99025 3.0822,5.39488 0.4067,10.63931 l -2.0479,4.01419 4.0692,4.8602 c 5.5113,6.58269 11.0266,15.91795 11.0266,18.6639 0,3.50306 1.3191,3.56913 7.634,0.38235 22.5892,-11.39946 9.2874,4.70018 -19.2442,23.29194 -16.4599,10.72566 -71.8986,40.81389 -74.8616,40.6296 -0.5655,-0.0352 -2.3782,-0.67676 -4.0282,-1.42574 z m 69.934,-91.71957 c 1.9247,-2.74788 0.5744,-4.4008 -2.3267,-2.84819 -2.0831,1.11484 -2.7337,3.09777 -1.4407,4.39079 1.1537,1.1537 2.1704,0.7374 3.7674,-1.5426 z"
         id="path3209"
         style="fill:#a52a2a" />
    </g>
    <g
       transform="matrix(0.74058538,0,0,0.80487669,173.11668,93.36762)"
       id="layer1-7">
      <path
         d="m 202.49295,701.57787 c -0.34222,-0.89179 0.62161,-4.6237 2.14183,-8.29313 6.81225,-16.44307 7.20761,-19.60935 9.57382,-76.67169 1.14117,-27.51976 1.63014,-31.28927 4.26829,-32.90456 1.46069,-0.89435 2.22147,-0.59834 4.14443,1.61256 3.26596,3.755 3.94718,11.70394 3.19591,37.292 -1.20214,40.94484 -6.6114,72.5 -12.42812,72.5 -1.0275,0 -2.85572,1.33573 -4.06273,2.96829 -3.03564,4.10593 -6.01466,5.63023 -6.83343,3.49653 z m 41.46886,-13.1778 c -2.30145,-2.63639 -3.92013,-6.05538 -6.05056,-12.78008 -2.00515,-6.32926 -5.22415,-44.16552 -6.29631,-74.00694 -0.7035,-19.58062 -2.89412,-30.04089 -4.9408,-23.59238 -1.71977,5.41851 -7.51777,0.22501 -7.52558,-6.74095 -0.002,-2.1443 -0.43119,-3.19085 -1.20204,-2.9339 -0.65906,0.21968 -4.95422,5.31968 -9.54479,11.33333 -15.75689,20.64151 -29.60692,32.1555 -35.81421,29.77354 -3.08551,-1.18402 -1.24963,-4.36894 5.87356,-10.1895 4.02394,-3.28808 9.8017,-9.05449 12.83946,-12.81424 10.5467,-13.05335 21.84428,-28.49197 21.84428,-29.85114 0,-2.92154 -1.81092,-2.20428 -5.46173,2.16325 -7.53967,9.01986 -24.78165,19.53238 -37.71994,22.99803 -3.47508,0.93083 -6.66642,1.98686 -7.09186,2.34672 -0.42544,0.35986 0.81206,4.13364 2.75,8.38617 4.20533,9.22798 4.45463,11.62107 1.21062,11.62107 -3.13406,0 -6.54983,-3.95864 -11.64863,-13.5 -2.35132,-4.4 -5.42364,-9.22975 -6.82737,-10.73277 -2.48376,-2.65944 -2.50326,-2.78689 -0.72668,-4.75 1.50286,-1.66064 3.07978,-2.01822 8.92058,-2.02281 8.80711,-0.007 12.95681,-1.11951 23.03491,-6.17598 11.11355,-5.57598 15.96539,-9.08858 24.37517,-17.64695 5.19766,-5.28949 7.87446,-8.9394 9.24758,-12.60939 3.62607,-9.69156 11.87407,-14.70982 20.85896,-12.69105 5.53569,1.24379 9.73565,4.55432 13.76083,10.84669 2.6404,4.1276 3.87866,5.26843 5.14719,4.74221 0.91871,-0.38111 10.22034,-2.1657 20.67034,-3.96575 10.45,-1.80006 23.9853,-4.41656 30.0785,-5.81445 12.9572,-2.97265 22.3149,-4.1743 25.7646,-3.30849 6.0534,1.51929 5.2793,15.13559 -1.1935,20.99335 -2.0207,1.8287 -2.0663,1.8153 -2.7226,-0.79958 -0.3671,-1.4627 -0.3941,-4.36897 -0.06,-6.45837 0.3341,-2.0894 0.3802,-4.02622 0.1023,-4.30406 -0.7741,-0.77411 -19.8214,5.75381 -20.2125,6.92728 -0.1891,0.56717 1.3101,1.34147 3.3314,1.72068 2.0214,0.37921 6.7647,1.83464 10.5408,3.23429 9.5436,3.53749 16.0773,11.14757 11.1832,13.02561 -0.9283,0.35622 -8.9158,-0.78754 -17.75,-2.54171 -17.9631,-3.56685 -29.5735,-4.93372 -49.6751,-5.84814 l -13.67968,-0.62228 -1.57015,3.03633 c -0.86358,1.66999 -3.6223,4.8427 -6.13046,7.05048 l -4.56031,4.01414 -0.28449,9.85036 c -0.20477,7.08986 0.089,10.2994 1.0481,11.45267 2.82093,3.39187 4.36156,15.2906 4.90694,37.89769 0.36649,15.19184 0.97993,23.66431 1.88863,26.08463 0.74021,1.97154 2.08462,8.72154 2.98757,15 2.70692,18.82201 1.21876,27.80973 -3.67621,22.20239 z m -7.21699,-135.68702 c 2.86567,-2.86567 3.4,-4.11173 3.4,-7.9288 0,-3.76844 -0.56548,-5.12838 -3.36808,-8.1 -5.18827,-5.50117 -10.05368,-4.58513 -13.70968,2.58121 -2.15296,4.22016 -1.84992,5.37967 1.57776,6.03701 1.73057,0.33188 1.97065,1.08589 1.78214,5.59706 l -0.21787,5.21352 3.56787,0 c 2.72423,0 4.3718,-0.80394 6.96786,-3.4 z m -27.39526,-30.74371 c -1.8124,-1.16051 -6.5374,-6.66543 -10.5,-12.23315 -9.47283,-13.30996 -13.92416,-17.63709 -22.27948,-21.65781 -3.8089,-1.83291 -7.68241,-3.96721 -8.60782,-4.7429 -5.4094,-4.53422 6.05798,-5.89039 14.91999,-1.76449 6.44118,2.99884 14.22329,10.13741 19.48,17.86913 2.17897,3.20489 4.18124,5.60759 4.44949,5.33934 0.26825,-0.26824 -0.53059,-4.01543 -1.77519,-8.32707 -1.82067,-6.30726 -2.27551,-10.43759 -2.32732,-21.13402 l -0.0644,-13.29469 -2.5,0.5971 c -1.375,0.3284 -7.31974,2.85992 -13.21053,5.6256 -10.29622,4.834 -13.71032,5.60854 -14.48356,3.2858 -0.80143,-2.4074 4.33547,-6.63723 13.83753,-11.39412 10.96929,-5.49142 12.32078,-5.78902 15.662,-3.44873 2.10733,1.47603 2.37091,1.42834 4.14482,-0.75 l 1.89438,-2.32628 0.93259,2.5 c 0.51293,1.375 1.22694,7.225 1.58669,13 0.95777,15.37473 3.80989,26.75393 9.71238,38.74983 2.78454,5.65915 4.91441,11.06804 4.73303,12.01976 -0.38324,2.01102 -4.53687,2.90288 -6.12467,1.31507 -1.65302,-1.65302 -2.68466,-1.30128 -2.68466,0.91534 0,2.61403 -2.57343,2.55961 -6.79526,-0.14371 z"
         id="path3220"
         style="fill:#085e15" />
    </g>
    <path
       d="m 284.53681,389.05739 c -1.472,-2.24653 -1.4044,-2.9256 0.977,-9.82518 1.5104,-4.3762 2.5613,-9.63366 2.5658,-12.83666 0,-2.98365 0.4643,-8.23987 1.0227,-11.68049 0.8297,-5.1123 0.7359,-6.79584 -0.5131,-9.21111 -2.1703,-4.19688 -4.5172,-16.1383 -4.5172,-22.98429 0,-3.20117 -0.6412,-7.05629 -1.425,-8.56691 -1.8393,-3.54536 -1.186,-5.19584 6.5868,-16.64052 5.0657,-7.45867 6.1634,-9.78889 5.9995,-12.73527 -0.6642,-11.93819 -0.5013,-13.04019 2.686,-18.16744 1.7296,-2.78238 3.4296,-6.19395 3.7778,-7.58127 0.6668,-2.6568 10.3808,-13.75514 13.501,-15.42501 2.9919,-1.60121 8.4044,1.27588 10.4298,5.5441 1.5254,3.21449 1.5829,4.33502 0.479,9.3381 -0.69,3.12691 -2.3482,8.01692 -3.6849,10.86669 -2.4007,5.11815 -2.4084,5.22802 -0.6341,9 1.7091,3.63334 2.0773,3.84884 7.5908,4.44183 6.6919,0.71976 9.9478,3.11657 12.7788,9.40716 2.4124,5.3604 3.2763,15.97029 1.6665,20.46621 -1.0702,2.98892 -2.076,3.7887 -6.9271,5.50841 -3.1213,1.1065 -5.9397,2.27644 -6.2631,2.59986 -0.3234,0.32343 0.1072,2.25195 0.9569,4.28561 0.8497,2.03366 1.1984,4.24025 0.7748,4.90354 -0.4235,0.66329 -1.059,7.95598 -1.4121,16.20598 -0.699,16.33316 -1.8716,21.16559 -5.4677,22.53282 -1.3271,0.50454 -3.4056,2.99115 -4.7993,5.7414 -3.3072,6.52638 -4.9768,7.83731 -8.144,6.39424 -3.546,-1.61567 -3.1586,-4.10052 2.5975,-16.65809 4.932,-10.75981 5.0575,-11.27176 6.0015,-24.48163 0.9135,-12.78307 0.8582,-13.63536 -1.0526,-16.21989 -3.5841,-4.84771 -2.5136,-7.98865 3.858,-11.31966 8.5874,-4.48946 9.4857,-5.59855 8.8808,-10.96517 -0.738,-6.54784 -3.1179,-8.70032 -9.8193,-8.88116 l -5.2938,-0.14286 -1.9449,-10 c -1.0697,-5.5 -1.9562,-12.1375 -1.97,-14.75 -0.014,-2.6125 -0.3534,-4.75 -0.7546,-4.75 -0.4012,0 -2.3592,2.3664 -4.3512,5.25866 -2.821,4.09595 -3.6282,6.25171 -3.6509,9.75 -0.043,6.67879 -3.1941,17.00193 -6.78,22.2139 -4.6117,6.70286 -5.2564,16.91379 -2.1009,33.27744 2.5584,13.26785 2.7232,16.32052 1.6856,31.2368 -0.704,10.12106 -2.7086,19.17645 -5.4265,24.5132 -1.8035,3.54139 -5.6761,3.70676 -7.8843,0.33666 z m 50.017,-23.4382 c -1.0457,-1.04573 -0.3543,-2.46517 2.4995,-5.13103 2.9378,-2.74427 2.9578,-2.83234 1.3653,-6.02442 -3.6992,-7.41531 0.3745,-23.25102 8.2134,-31.92776 5.0441,-5.58323 8.5413,-7.35742 11.9489,-6.06187 1.4417,0.54814 4.167,0.99662 6.0562,0.99662 3.1409,0 3.4349,-0.25379 3.4349,-2.96505 0,-1.63078 0.7267,-5.10561 1.615,-7.72185 0.8882,-2.61623 1.7022,-6.01665 1.8088,-7.55648 0.2617,-3.77987 8.5112,-12.05216 14.6544,-14.69491 12.0268,-5.17379 22.1205,-5.07156 27.4492,0.27801 2.6342,2.64455 3.2548,4.1925 3.8028,9.48549 0.8178,7.89912 -0.1938,9.99215 -7.4934,15.5034 -6.5901,4.97557 -11.4984,10.41593 -11.9841,13.28321 -0.4866,2.87178 0.1966,3.0572 3.4383,0.93319 2.2671,-1.48549 3.2525,-1.61843 5.25,-0.7083 4.5967,2.0944 3.2403,5.28164 -5.791,13.60789 -8.9621,8.26247 -16.283,12.5554 -21.4112,12.5554 -4.4664,0 -6.0252,-2.85767 -3.3877,-6.21067 1.3045,-1.65841 2.0052,-4.40565 2.2178,-8.69493 0.2607,-5.26123 0,-6.49776 -1.6202,-7.68245 -2.8728,-2.10063 -3.2201,-1.82562 -3.8928,3.08187 -0.3388,2.4716 -1.7701,6.77142 -3.1807,9.55514 -2.3088,4.55619 -2.4406,5.40462 -1.3209,8.50109 1.1024,3.04864 1.0129,3.75305 -0.7867,6.19486 -2.4428,3.31441 -11.518,8.96857 -16.3676,10.19753 -4.1268,1.04581 -15.8244,1.89986 -16.5182,1.20602 z m 20.6958,-22.5325 c 3.3159,-3.22033 5.7861,-7.41782 7.2801,-12.37089 0.9387,-3.11175 -1.7273,-3.96381 -6.0108,-1.92113 -3.8147,1.81911 -6.8354,6.94298 -7.915,13.42606 -0.6293,3.77926 -0.4934,4.25 1.2268,4.25 1.064,0 3.5025,-1.52282 5.4189,-3.38404 z m 38.5932,-12.42846 c 0.2177,-0.65313 -0.3166,-1.1875 -1.1875,-1.1875 -0.8708,0 -1.5833,0.7125 -1.5833,1.58333 0,1.76593 2.1528,1.45839 2.7708,-0.39583 z m 1.2068,-21.41005 c 8.8658,-8.9592 10.0793,-10.59669 9.8192,-13.25 -0.2505,-2.55486 -0.7672,-3.07361 -3.3103,-3.32317 -2.557,-0.25093 -3.1871,0.16416 -4.1595,2.74034 -1.3392,3.54787 -4.6024,5.05538 -10.9431,5.05538 -4.1737,0 -4.5868,0.24141 -5.9349,3.46788 -2.2458,5.37499 -1.8435,9.51091 1.2381,12.7274 1.4779,1.5426 2.7968,2.80472 2.9308,2.80472 0.1341,0 4.7959,-4.60015 10.3597,-10.22255 z"
       id="path3224"
       style="fill:#ff8c00;fill-opacity:1" />
    <g
       transform="translate(74.285729,361.42858)"
       id="layer1-0">
      <path
         d="m 228.03092,479.34848 c -2.7682,-1.08078 -4.4295,-4.08528 -3.284,-5.93883 0.3525,-0.57037 2.2581,-1.8119 4.2346,-2.75895 l 3.5937,-1.7219 0.3349,-7.49999 c 0.1842,-4.125 1.0642,-12.35603 1.9555,-18.29117 0.8912,-5.93515 1.3279,-11.08378 0.9702,-11.44141 -0.3576,-0.35763 -3.0016,1.63223 -5.8755,4.4219 -11.216,10.88734 -19.1026,14.21101 -21.7929,9.18419 -1.3658,-2.552 0.1993,-6.87351 2.4893,-6.87351 4.3827,0 27.8226,-24.29853 43.5876,-45.1843 5.1129,-6.77363 10.8938,-14.0032 12.8464,-16.06571 3.4308,-3.62382 6.7223,-4.7068 8.6944,-2.86071 1.4836,1.3888 12.5246,4.29607 14.0672,3.70411 0.8559,-0.32845 1.3828,-2.04415 1.3828,-4.503 0,-2.1848 0.5625,-4.33642 1.25,-4.78138 0.6875,-0.44496 4.4,-0.89165 8.25,-0.99264 3.85,-0.10099 8.271,-0.27638 9.8245,-0.38975 5.099,-0.37211 5.6058,1.22464 4.6259,14.57338 l -0.8809,12 3.7017,3 c 10.1627,8.23637 19.2475,16.79426 21.2251,19.99405 2.7198,4.40068 2.0894,8.19535 -1.5115,9.09913 -3.9093,0.98115 -6.8874,-0.22693 -14.0018,-5.67977 -3.6414,-2.791 -7.1955,-4.854 -7.8979,-4.58444 -0.84,0.32232 -1.502,3.68767 -1.9338,9.83057 -0.3612,5.13725 -1.3292,13.16501 -2.1511,17.83945 -0.8218,4.67445 -1.989,13.44761 -2.5937,19.49592 -0.6047,6.04831 -1.5218,11.78626 -2.0381,12.751 -1.5795,2.95122 -6.4494,2.23988 -9.0867,-1.32728 -2.7466,-3.715 -2.2582,-3.74271 -26.7817,1.51965 -18.7181,4.01659 -37.879,5.56058 -43.2042,3.48139 z m 24.1863,-12.25015 c 4.3594,-1.13751 4.5044,-1.30366 5.2985,-6.07096 0.5274,-3.16598 0.4452,-5.2727 -0.2321,-5.95 -2.7229,-2.72293 1.0287,-15.31106 5.1802,-17.38145 3.4266,-1.70884 15.1186,-3.24728 19.3996,-2.55258 1.9501,0.31647 3.7717,1.1643 4.0479,1.88407 0.5118,1.33369 -1.8551,8.30536 -5.5684,16.4014 -3.4865,7.60164 -3.1423,8.21602 4.1422,7.3942 11.9144,-1.34415 10.8019,0.0806 13.8455,-17.73166 1.4771,-8.64474 2.925,-16.63281 3.2174,-17.75129 0.3108,-1.18842 -0.021,-2.24554 -0.7971,-2.54355 -0.7309,-0.28048 -6.6585,0.73174 -13.1724,2.24938 -9.8212,2.28819 -14.1522,2.76083 -25.3649,2.76808 l -13.5215,0.009 -1.6544,10.05305 c -0.91,5.52918 -3.0378,14.16943 -4.7285,19.20055 -1.6908,5.03087 -3.0741,9.64337 -3.0741,10.24973 0,1.42218 7.1384,1.29682 12.9821,-0.22797 z m 16.6236,-3.43483 c 0.6082,-0.40408 1.4266,-2.53469 1.8187,-4.73469 0.3921,-2.2 1.807,-6.41688 3.1442,-9.37084 1.3373,-2.95397 2.4314,-5.54147 2.4314,-5.75 0,-0.20854 -1.7449,-0.37916 -3.8776,-0.37916 -5.0858,0 -6.5303,1.91263 -6.6967,8.86726 -0.074,3.098 -0.461,7.09524 -0.8597,8.88274 -0.6132,2.74913 -0.443,3.24764 1.1045,3.23469 1.0062,-0.008 2.3271,-0.34592 2.9352,-0.75 z m 17.8943,-50.5552 c 6.05,-1.42862 13.025,-2.96767 15.5,-3.42012 2.8718,-0.52499 4.5,-1.3442 4.5,-2.26421 0,-2.24899 -30.4123,-21.99516 -33.8761,-21.99516 -0.7054,0 -21.6289,27.91781 -22.4005,29.88851 -0.9342,2.3858 22.9868,0.92916 36.2766,-2.20902 z m 19.0183,-30.78761 c 0.8392,-4.96751 -1.322,-8.13047 -4.2871,-6.27409 -2.4631,1.54212 -2.8651,7.44556 -0.6188,9.08807 2.9703,2.17195 4.1808,1.47763 4.9059,-2.81398 z"
         id="path3222"
         style="fill:#1e1eaa" />
    </g>
  </g>
</svg>
