<?xml version="1.0" encoding="UTF-8" standalone="no"?>
<!-- Created with Inkscape (http://www.inkscape.org/) -->

<svg
   xmlns:dc="http://purl.org/dc/elements/1.1/"
   xmlns:cc="http://creativecommons.org/ns#"
   xmlns:rdf="http://www.w3.org/1999/02/22-rdf-syntax-ns#"
   xmlns:svg="http://www.w3.org/2000/svg"
   xmlns="http://www.w3.org/2000/svg"
   version="1.1"
   width="64"
   height="64"
   id="svg3043">
  <defs
     id="defs3045" />
  <metadata
     id="metadata3048">
    <rdf:RDF>
      <cc:Work
         rdf:about="">
        <dc:format>image/svg+xml</dc:format>
        <dc:type
           rdf:resource="http://purl.org/dc/dcmitype/StillImage" />
        <dc:title></dc:title>
      </cc:Work>
    </rdf:RDF>
  </metadata>
  <g
     id="layer1">
    <path
       d="M 52.017331,4.7979178 C 51.07593,4.3898105 50.1465,3.9455605 49.193123,3.5735887 c -0.09873,-0.038521 -0.211231,0.022876 -0.3138,0 -0.275426,-0.061403 -1.104699,-0.468786 -1.255205,-0.5247108 -0.204572,-0.076017 -0.414128,-0.1409094 -0.6276,-0.1749052 -0.155322,-0.024748 -0.321852,0.05531 -0.470703,0 C 46.346924,2.8074982 46.22844,2.6069695 46.055116,2.5241643 45.856913,2.4294755 45.634855,2.4152981 45.427511,2.3492625 45.268489,2.2986148 45.120539,2.2004297 44.956813,2.1743566 44.028523,2.0265265 44.61983,2.3832964 43.701608,1.9994508 43.482609,1.9079028 43.295897,1.7320935 43.074008,1.649643 42.168469,1.313161 42.423429,1.5771216 41.505001,1.4747411 41.239649,1.445147 40.982002,1.3581383 40.720503,1.2998353 c -1.93784,-0.43203733 0.48226,0.097744 -1.725908,-0.34980772 -0.262377,-0.0531751 -0.518916,-0.14799076 -0.784499,-0.17490642 -0.312514,-0.0316841 -0.627605,0 -0.941405,0 -0.941401,0 -1.882802,0 -2.824208,0 -0.366098,0 -0.7322,0 -1.098303,0 -0.366098,0 -0.733278,-0.031307 -1.098302,0 -0.317191,0.027186 -0.62647,0.12475454 -0.941402,0.17490642 -0.417418,0.0664749 -0.842906,0.0764188 -1.255201,0.17490532 -0.323436,0.077257 -0.619101,0.2668966 -0.941405,0.3498082 -0.360346,0.0927 -0.736692,0.088524 -1.098303,0.1749019 -0.372297,0.088933 -0.726003,0.2608755 -1.098303,0.3498078 -0.361608,0.086381 -0.744836,0.053666 -1.098304,0.1749058 -0.335325,0.1150161 -0.613946,0.384315 -0.941401,0.5247142 -0.355371,0.1523633 -0.739733,0.207052 -1.098302,0.3498071 -0.375101,0.1493367 -0.732202,0.3498083 -1.098303,0.5247108 -3.139534,1.4999074 0.771888,-0.3971346 -2.039705,1.0494271 -0.0084,0.00427 -2.194078,1.047906 -2.196606,1.0494233 -0.332062,0.1993199 -0.620207,0.4792792 -0.941402,0.6996159 -0.359108,0.2463485 -0.739195,0.4532712 -1.098303,0.6996196 -0.642393,0.4406774 -1.255203,0.9328212 -1.882805,1.3992318 -0.313801,0.2332055 -0.639689,0.4473654 -0.941403,0.6996155 -1.261025,1.0542921 -0.620406,0.6287224 -1.725904,1.7490431 -0.604497,0.612602 -1.305131,1.105081 -1.8828046,1.749043 -0.236799,0.263969 -0.4023338,0.598293 -0.6276018,0.874519 -1.0940776,1.341583 -0.78263,0.696836 -1.7259042,2.098852 -0.2262849,0.336331 -0.401317,0.713088 -0.6276018,1.049422 -0.2450858,0.364281 -0.5519928,0.675041 -0.784502,1.049427 -0.3607496,0.580874 -0.8058962,1.621834 -1.0983024,2.273753 -0.1569013,0.34981 -0.3324982,0.68995 -0.4707017,1.049425 -0.1760244,0.457854 -0.3047434,0.936736 -0.4707016,1.399234 -0.1479272,0.412253 -0.3138004,0.81622 -0.4707006,1.22433 -0.2092015,0.408108 -0.4615031,0.792293 -0.6276018,1.224329 -0.1499853,0.390121 -0.2092005,0.81622 -0.3138014,1.22433 -0.1045987,0.408108 -0.2156952,0.814217 -0.3138004,1.224331 -0.1111241,0.46453 -0.19532,0.936964 -0.3138003,1.399231 -0.090867,0.354543 -0.239423,0.690136 -0.3138015,1.049422 -0.1663145,0.803392 -0.1588253,1.642458 -0.3138004,2.44866 -0.079784,0.41502 -0.2599555,0.804153 -0.3138014,1.224329 -0.016189,0.126323 0.013881,2.057207 0,2.273754 -0.092516,1.443822 -0.25222921,1.242081 -0.1569002,2.623564 0.024401,0.353585 0.1325013,0.695836 0.1569002,1.049423 0.06017,0.871944 -0.055894,1.751266 0,2.623565 6.81e-5,0.0011 0.3127197,2.091015 0.3138014,2.098847 0.018816,0.136334 0.2535897,2.055617 0.3138004,2.273757 0.117136,0.424374 0.3447461,0.803102 0.4707016,1.224326 0.084336,0.282026 0.072572,0.5925 0.1569002,0.874521 0.1259557,0.421227 0.3175062,0.814476 0.4707016,1.224329 0.1083247,0.289814 0.1878449,0.593705 0.3138004,0.874522 0.3572216,0.796422 0.5940131,1.046347 1.0983024,1.749044 0.2092017,0.291504 0.4051174,0.595504 0.6276018,0.874518 0.196555,0.246496 0.4184013,0.466414 0.6276018,0.699619 0.6595708,0.735251 1.2815873,1.484221 2.0397057,2.098848 0.1988205,0.16119 1.4236412,1.071172 1.7259042,1.224329 0.301126,0.152582 0.6360716,0.207991 0.9414014,0.349808 0.562399,0.261223 1.320409,0.788205 1.882806,1.049427 0.305331,0.141816 0.629897,0.225789 0.941402,0.349808 0.42082,0.167539 0.831283,0.367191 1.255204,0.524714 0.722423,0.268437 1.464403,0.46641 2.196605,0.699616 0.60028,0.191186 1.762748,0.576138 2.353506,0.699616 0.414435,0.08662 0.840768,0.08828 1.255203,0.174905 0.423892,0.08859 0.831313,0.261207 1.255204,0.349807 0.414435,0.08662 0.840767,0.08828 1.255203,0.174904 4.685358,0.979311 -2.477833,-0.312534 2.667308,0.699615 0.396794,0.07806 2.328104,0.305325 2.667305,0.349813 0.491588,0.06448 2.221637,0.320581 2.667309,0.349807 0.417678,0.02737 0.8368,0 1.255201,0 0.418401,0 0.836805,0 1.255205,0 1.463274,0 2.941884,0.09474 4.393209,-0.174906 0.425413,-0.07903 0.836805,-0.233206 1.255206,-0.349809 0.470703,-0.0583 0.944948,-0.08812 1.412103,-0.174905 0.475625,-0.08837 0.941402,-0.233205 1.412104,-0.349808 0.470702,-0.116601 0.94751,-0.205946 1.412104,-0.349807 1.339108,-0.414658 2.614431,-1.059486 3.92251,-1.574139 0.467876,-0.184079 0.953314,-0.314118 1.412103,-0.524709 1.814238,-0.83276 0.72391,-0.484187 2.353504,-1.574142 0.401125,-0.268288 0.854082,-0.431324 1.255206,-0.699615 0.858552,-0.574241 1.434186,-1.204797 2.196606,-1.923946 0.311825,-0.294128 0.640291,-0.56683 0.941401,-0.874521 0.327138,-0.334282 0.614269,-0.715142 0.941401,-1.049423 0.301112,-0.307692 0.665387,-0.538861 0.941405,-0.874523 0.304012,-0.369703 0.496483,-0.839045 0.784502,-1.224328 0.236753,-0.316701 0.56261,-0.544717 0.7845,-0.874521 0.252995,-0.37603 0.406615,-0.824013 0.627604,-1.224328 0.197657,-0.358053 0.429942,-0.691376 0.627601,-1.049426 0.534446,-0.968125 0.661375,-1.299623 1.098303,-2.273754 0.156899,-0.349807 0.352701,-0.681111 0.470702,-1.049424 0.145055,-0.452759 0.195317,-0.93697 0.313801,-1.399235 0.09087,-0.354543 0.239424,-0.690137 0.3138,-1.049424 0.08316,-0.401697 0.07941,-0.821228 0.156899,-1.224329 0.07977,-0.41502 0.234022,-0.809309 0.3138,-1.224329 0.07749,-0.403102 0.1046,-0.816218 0.156903,-1.22433 0.0523,-0.40811 0.104599,-0.816217 0.156901,-1.224328 0.0523,-0.408111 0.130552,-0.813123 0.156899,-1.224329 0.02609,-0.407075 -0.02436,-0.817124 0,-1.22433 0.09312,-1.556915 0.251713,-1.143889 0.156901,-2.623561 -0.02634,-0.411208 -0.130553,-0.813126 -0.156901,-1.224329 -0.02609,-0.407074 0.02609,-0.817257 0,-1.22433 -0.263028,-4.104908 -0.05802,1.93856 -0.3138,-2.62356 -0.192848,-3.43964 0.290439,0.519779 -0.313801,-2.623567 -0.154976,-0.806202 -0.123223,-1.651989 -0.313801,-2.448658 -0.115138,-0.481307 -0.355564,-0.917923 -0.470702,-1.399232 -0.09528,-0.398334 -0.06162,-0.825994 -0.156899,-1.224329 -0.115138,-0.481308 -0.304746,-0.936733 -0.470702,-1.399236 -0.672757,-1.874884 -0.23633,-0.570799 -0.941405,-2.273752 -0.166909,-0.403144 -0.270004,-0.8408 -0.470698,-1.22433 -0.16874,-0.322458 -0.44184,-0.563906 -0.627601,-0.874522 -0.233895,-0.391095 -0.374609,-0.848296 -0.627604,-1.224325 -0.22189,-0.329806 -0.523,-0.583017 -0.784499,-0.874523 C 57.195043,11.44428 56.881242,11.094471 56.567442,10.744659 56.044441,10.161646 55.545726,9.5502428 54.99844,8.9956198 54.69619,8.6893177 54.370835,8.4126071 54.057036,8.1210981 53.743235,7.82959 53.429435,7.5380852 53.115634,7.2465769 52.801833,6.9550722 52.501014,6.6452657 52.174229,6.372055 51.570805,5.8675579 50.901444,5.4673769 50.291427,4.9728236 50.020595,4.7532532 49.796191,4.461306 49.506924,4.2732076 48.523976,3.6340266 48.557844,3.8338082 47.624118,3.5735887 45.618133,3.0145473 47.404205,3.3869768 45.584414,3.0488779"
       id="path3811"
       style="fill:none;stroke:#000000;stroke-width:1.722;stroke-linecap:butt;stroke-linejoin:miter;stroke-miterlimit:4;stroke-opacity:1;stroke-dasharray:none" />
    <path
       d="M 27.499544,61.677352 C 26.154293,61.491683 24.83766,61.250312 24.573693,61.140973 24.309725,61.031633 23.487658,60.830481 22.746876,60.693966 19.922564,60.173488 18.608952,59.862586 16.672727,59.256355 14.156876,58.468646 13.693743,58.280408 11.128785,57.003048 9.4080358,56.146108 8.7715958,55.706728 7.5216141,54.512761 6.6868385,53.715392 5.604472,52.496148 5.1163549,51.80333 3.8297338,49.977137 2.8210285,47.012326 2.3868492,43.780703 2.0805054,41.500566 2.0789115,34.354886 2.3843145,32.417066 c 0.3928423,-2.492634 1.4859251,-6.932427 1.9248464,-7.818182 0.2229902,-0.45 0.6730336,-1.554545 1.0000963,-2.454545 0.7751775,-2.133106 1.456406,-3.475106 2.6451449,-5.210858 2.5925269,-3.785511 5.7899359,-6.891425 10.0508399,-9.7632314 1.256968,-0.8471834 6.459205,-3.4804561 6.875916,-3.4804561 0.1424,0 0.44012,-0.1168999 0.661602,-0.2597775 0.221482,-0.1428776 1.139058,-0.4285825 2.039058,-0.6348997 0.9,-0.2063172 1.881818,-0.4524549 2.181818,-0.5469728 2.147477,-0.6765825 7.203115,-0.778776 9.827393,-0.1986486 0.894935,0.1978358 1.884127,0.3614722 2.198207,0.3636364 0.314079,0.00216 0.927715,0.1657744 1.363637,0.3635782 0.43592,0.1978038 1.010891,0.3614401 1.277711,0.3636363 0.724691,0.00596 1.029514,0.1734509 0.939832,0.5163922 -0.06552,0.2505482 0.190042,0.3715064 1.387879,0.6568896 1.583289,0.3772168 1.747258,0.4628513 3.488363,1.8218395 2.919067,2.2784227 6.91086,6.3793559 7.674978,7.8848189 0.186899,0.368229 0.441108,0.792235 0.564908,0.942235 0.372081,0.450828 1.922825,4.472166 2.084141,5.404525 0.08262,0.477511 0.273962,1.359111 0.425211,1.959111 0.600911,2.383826 1.115057,7.624091 1.088175,11.090909 -0.02754,3.551031 -0.546058,7.319311 -1.476096,10.727273 -0.285682,1.046829 -2.410957,5.183453 -3.23465,6.295905 -1.161136,1.568189 -4.903109,5.313804 -5.979045,5.984862 -0.554082,0.345578 -1.402122,0.928007 -1.884535,1.294287 -1.160427,0.881073 -6.295352,2.938735 -8.53901,3.421744 -0.963904,0.207506 -2.32528,0.498709 -3.02528,0.647118 -1.813059,0.384393 -7.277648,0.326375 -10.445911,-0.110903 l 0,0 z"
       id="path3003"
       style="fill:#aa0000;fill-opacity:1;stroke:#000000;stroke-width:0.5090909;stroke-linejoin:miter;stroke-miterlimit:4;stroke-opacity:1;stroke-dasharray:none" />
  </g>
</svg>
