<?xml version="1.0" standalone="no"?>
<!DOCTYPE svg PUBLIC "-//W3C//DTD SVG 20010904//EN"
 "http://www.w3.org/TR/2001/REC-SVG-20010904/DTD/svg10.dtd">
<svg version="1.0" xmlns="http://www.w3.org/2000/svg"
 width="1280.000000pt" height="800.000000pt" viewBox="0 0 1280.000000 800.000000"
 preserveAspectRatio="xMidYMid meet">
<metadata>
Created by potrace 1.11, written by Peter Selinger 2001-2013
</metadata>
<g transform="translate(0.000000,800.000000) scale(0.100000,-0.100000)"
fill="#000000" stroke="none">
<path d="M6315 5820 c-292 -13 -639 -63 -800 -114 -44 -14 -78 -20 -81 -14
-11 17 -59 30 -117 29 -62 0 -257 -34 -322 -56 -79 -27 -444 -135 -644 -190
-398 -111 -630 -207 -871 -363 -105 -67 -124 -83 -228 -185 -98 -96 -155 -172
-212 -282 -22 -44 -40 -72 -40 -62 0 10 -6 20 -14 23 -22 9 147 226 289 373
122 126 224 204 321 247 30 13 54 30 54 37 0 14 150 70 373 138 72 22 242 77
377 121 135 44 328 101 430 128 102 27 196 53 210 58 24 10 24 10 5 18 -11 5
-65 8 -120 7 -77 -1 -131 -9 -237 -36 -137 -35 -779 -244 -915 -298 -124 -49
-246 -115 -298 -161 -28 -24 -83 -70 -123 -102 -99 -80 -244 -234 -321 -342
-58 -83 -187 -321 -178 -330 2 -2 23 23 46 56 23 33 43 60 44 60 5 0 -12 -172
-22 -220 -42 -200 -58 -615 -32 -810 14 -106 53 -265 75 -307 7 -16 21 -66 31
-113 30 -155 86 -343 147 -495 33 -82 76 -195 95 -250 43 -122 102 -238 150
-295 22 -26 61 -54 97 -71 37 -18 87 -55 131 -97 123 -121 219 -197 321 -257
54 -32 178 -111 274 -175 307 -205 429 -268 589 -304 70 -16 79 -21 151 -89
156 -147 314 -197 745 -238 291 -27 625 -23 825 11 69 11 168 25 221 30 53 5
108 12 123 16 21 5 25 3 20 -10 -4 -11 -1 -16 12 -16 27 0 67 23 159 89 44 31
107 72 140 90 33 18 84 51 114 74 30 22 91 55 135 72 106 42 310 129 516 220
91 40 197 83 235 95 119 39 283 129 270 150 -3 4 19 23 47 40 29 18 93 62 142
99 48 36 92 65 98 63 15 -4 66 26 93 56 29 31 83 130 123 228 16 38 73 170
127 294 145 334 184 462 239 778 14 78 41 214 61 303 20 89 45 218 55 288 11
69 32 187 47 261 25 122 27 154 26 330 -1 166 -4 204 -21 255 -11 33 -25 86
-32 118 -22 108 -116 217 -270 312 -178 110 -825 434 -1016 509 -279 109 -626
180 -1004 205 -157 10 -653 11 -865 1z m900 -60 c261 -22 553 -83 770 -162
167 -61 323 -133 745 -340 356 -176 546 -283 595 -338 21 -23 53 -176 54 -256
2 -112 -199 -261 -533 -394 -246 -98 -391 -141 -526 -156 -127 -14 -240 -42
-175 -44 121 -3 -254 -69 -565 -99 -270 -26 -320 -30 -620 -41 -268 -10 -355
-14 -690 -30 -447 -22 -1060 -19 -1400 6 l-115 8 65 7 c36 4 182 13 325 19
143 7 264 15 268 20 11 9 -33 24 -131 45 -87 18 -222 19 -558 4 -381 -16 -528
2 -849 108 -149 48 -255 64 -294 44 -29 -16 -20 -27 28 -35 22 -3 97 -30 168
-60 70 -29 135 -56 143 -59 66 -24 -183 18 -349 59 -161 40 -346 125 -427 196
-35 31 -79 106 -95 162 -25 87 75 287 220 439 200 210 580 419 975 536 223 67
279 79 351 79 39 1 104 10 145 22 150 41 187 50 300 69 63 11 162 25 220 31
58 6 215 28 350 47 264 39 461 48 570 25 30 -6 107 -16 170 -22 63 -6 131 -13
150 -15 32 -4 31 -3 -10 10 -24 8 -76 19 -115 24 -38 5 -119 16 -180 25 -60 9
-141 19 -180 23 l-70 7 60 7 c50 6 238 19 470 32 131 8 633 6 740 -3z m2221
-1417 c-3 -43 -15 -123 -25 -178 -10 -55 -31 -167 -46 -250 -15 -82 -49 -240
-75 -350 -27 -110 -61 -267 -76 -350 -52 -292 -75 -358 -299 -875 -94 -217
-100 -227 -164 -293 -162 -168 -335 -274 -953 -585 -355 -179 -434 -214 -383
-172 8 7 15 23 15 36 0 40 -40 30 -90 -22 -47 -48 -288 -213 -376 -257 -84
-42 -154 -56 -257 -50 -61 4 -127 0 -197 -11 -282 -44 -446 -41 -720 13 -177
35 -206 37 -218 16 -7 -14 -33 -9 -198 39 -105 30 -213 64 -242 75 -79 31
-193 98 -233 138 -45 43 -84 44 -84 0 1 -32 -3 -31 -104 14 -125 57 -444 262
-691 446 -165 122 -194 147 -340 283 -63 59 -130 120 -149 136 -44 36 -148
176 -172 230 -10 22 -37 112 -59 200 -90 345 -182 640 -252 798 l-30 69 3 216
c1 119 -1 288 -5 376 -3 88 -3 175 1 193 l8 33 47 -64 c94 -127 313 -277 446
-306 120 -25 111 -10 -58 100 -77 50 -140 93 -140 94 0 2 28 -8 61 -21 320
-130 1280 -236 2189 -243 234 -1 397 3 895 24 72 3 261 10 420 15 676 24 1039
65 1435 165 207 52 263 53 89 2 -242 -72 -337 -136 -201 -137 101 0 530 121
787 222 181 71 337 172 400 258 20 28 39 50 42 50 3 0 3 -35 -1 -77z"/>
</g>
</svg>
