<?xml version="1.0" encoding="UTF-8" standalone="no"?>
<!-- Created with Inkscape (http://www.inkscape.org/) -->

<svg
   xmlns:dc="http://purl.org/dc/elements/1.1/"
   xmlns:cc="http://creativecommons.org/ns#"
   xmlns:rdf="http://www.w3.org/1999/02/22-rdf-syntax-ns#"
   xmlns:svg="http://www.w3.org/2000/svg"
   xmlns="http://www.w3.org/2000/svg"
   version="1.1"
   width="586.56134"
   height="252.09546"
   id="svg3795">
  <metadata
     id="metadata3801">
    <rdf:RDF>
      <cc:Work
         rdf:about="">
        <dc:format>image/svg+xml</dc:format>
        <dc:type
           rdf:resource="http://purl.org/dc/dcmitype/StillImage" />
        <dc:title></dc:title>
      </cc:Work>
    </rdf:RDF>
  </metadata>
  <defs
     id="defs3799" />
  <path
     d="m 476.52131,251.71944 c -13.9182,-2.03794 -86.86654,-3.61186 -89.67406,-1.93479 -1.08928,0.65068 -11.56889,0.74327 -30,0.26505 -33.95336,-0.88095 -31.65945,-0.88154 -60.32594,0.0153 -12.65,0.39578 -32.675,0.39644 -44.5,0.001 -11.825,-0.39497 -42.65,-0.95349 -68.5,-1.24114 -25.84999,-0.28765 -56.45,-0.97449 -68,-1.5263 -11.55,-0.55181 -30.112498,-1.0058 -41.249998,-1.00886 -17.520202,-0.005 -20.249997,0.20088 -20.249997,1.52582 0,2.4733 -2.263559,2.68538 -10.991083,1.0298 -4.526419,-0.85865 -12.792642,-1.57549 -18.369385,-1.59298 -7.327102,-0.023 -10.677949,-0.43904 -12.080662,-1.5 -1.067621,-0.807 -3.2576051,-1.46769 -4.8666311,-1.46769 -2.568277,0 -2.84263,-0.27474 -2.246822,-2.25 0.739058,-2.45017 1.985621,-53.55207 1.933198,-79.25 -0.01795,-8.8 -0.553406,-26.35 -1.189898,-39 -0.636493,-12.65 -1.623453,-32.900001 -2.193244,-45.000001 -0.569792,-12.1 -1.441064,-28.300002 -1.936159,-36.000002 -0.495096,-7.7 -1.17518101,-18.275 -1.51130101,-23.499999 -0.817711,-12.7113685 -0.806479,-13.1415345 0.373942,-14.3219555 0.69839101,-0.698391 1.77517301,-0.681442 3.38781401,0.05333 1.635888,0.745361 7.7273591,0.812706 19.7771261,0.218651 10.544248,-0.519834 26.592633,-0.463863 40.683947,0.14189 12.798965,0.550198 23.625405,0.781227 24.058765,0.513398 0.43335,-0.267828 21.911468,-0.549105 47.729148,-0.625058 26.364,-0.07756 58.55783,-0.777648 73.44124,-1.597051 34.54463,-1.90185 29.67408,-1.825183 89.5,-1.408808 28.6,0.19905 54.475,0.04278 57.5,-0.347273 11.42575,-1.47325895 33.33321,-2.45093095 35.60086,-1.58877195 1.27896,0.486259 17.07948,1.08812695 35.11226,1.33748495 18.03278,0.249358 36.51294,0.987744 41.06701,1.640858 6.28491,0.901339 12.25017,0.918173 24.75577,0.06986 18.12573,-1.229553 40.81998,-0.479033 43.9641,1.453933 1.32938,0.817286 9.00154,1.412556 22.88073,1.775274 13.31108,0.347872 21.28648,0.949853 22,1.660552 1.59766,1.591355 2.26376,16.7205955 1.27784,29.0236955 -0.54854,6.84512 -0.46344,12.76254 0.24447,17 2.47816,14.833812 3.53139,41.311092 1.7412,43.771752 -0.50888,0.69946 -0.77461,7.449461 -0.59051,14.999991 0.45345,18.59714 0.33726,49.51746 -0.27705,73.72825 -0.2791,11 -0.23054,26.00879 0.10793,33.35286 0.33846,7.34407 0.35187,13.77592 0.0298,14.293 -0.32208,0.51707 -0.29426,2.60829 0.0618,4.64714 0.35607,2.03885 0.25894,4.88464 -0.21586,6.32398 -0.83681,2.53675 -1.18631,2.63861 -11.40094,3.32285 -5.79572,0.38823 -15.56006,0.59133 -21.69855,0.45133 -6.13848,-0.14 -13.86088,-0.15323 -17.16088,-0.0294 -3.3,0.12383 -15.11416,0.15492 -26.2537,0.0691 -17.12827,-0.13195 -20.63348,0.0928 -22.71481,1.45656 -2.31403,1.51621 -4.27582,1.74372 -9.03149,1.04738 z m -64,-7.99832 c 16.5,-0.32655 36.3,-0.21583 44,0.24604 7.7,0.46187 23.45,0.53639 35,0.16561 11.55,-0.37079 36.075,-0.91645 54.5,-1.21259 l 33.5,-0.53843 -0.46081,-8.79855 c -0.47459,-9.06164 -0.34199,-52.48601 0.31848,-104.29855 0.86364,-67.750153 0.91562,-64.791483 -1.31345,-74.771433 -1.93089,-8.64495 -1.9662,-9.59131 -0.52248,-14.00522 1.12146,-3.42869 1.46976,-7.90288 1.2633,-16.22857 l -0.28504,-11.494779 -6,-0.641466 c -3.3,-0.352807 -16.03072,-0.690307 -28.29049,-0.75 -20.91717,-0.101847 -22.46388,-0.23672 -25.10465,-2.1891275 -2.75972,-2.040348 -3.18933,-2.057725 -22.20951,-0.898347 -10.66744,0.650236 -22.32035,0.940323 -25.89535,0.644637 -29.12529,-2.408929 -38.96155,-2.779896 -60.61284,-2.285964 -17.01481,0.388159 -25.01245,0.210519 -27.16893,-0.603463 -2.38238,-0.899246 -7.4279,-0.762265 -22.88717,0.621367 -16.23247,1.452836 -27.72467,1.713895 -63.33106,1.43864 -26.10007,-0.201767 -58.89993,0.239367 -82,1.102839 -21.175,0.7915145 -51.09999,1.3157235 -66.49999,1.1649085 -15.40001,-0.150815 -41.17183,0.224928 -57.270708,0.834985 -21.490194,0.814356 -29.823558,0.813319 -31.350545,-0.0039 -2.369763,-1.2682585 -39.902293,-1.3797855 -48.878752,-0.145241 -4.6762381,0.643129 -5.4657291,1.052505 -5.2711861,2.733276 0.781076,6.74815 2.629187,42.046985 2.475501,47.281965 -0.106449,3.62601 0.422235,7.758672 1.244225,9.725972 1.0383641,2.48516 1.6128281,10.33403 2.1001971,28.69489 0.368979,13.900721 0.897878,25.651761 1.175332,26.113421 0.665323,1.10706 1.976319,31.73702 3.238356,75.66061 0.561003,19.525 1.207352,35.99088 1.436332,36.59084 0.441461,1.15671 42.36374,2.61544 82.601238,2.87421 11.825,0.076 33.875,0.64933 49.00001,1.27398 38.30169,1.58181 92.10004,1.63262 104.49999,0.0987 13.97655,-1.72896 56.92376,-1.69291 66.5,0.0558 8.17973,1.49371 42.99378,3.0744 55,2.49721 4.125,-0.19831 21,-0.62774 37.5,-0.95428 z"
     id="path3805"
     style="fill:#2d2d2d" />
</svg>
