<?xml version="1.0" encoding="UTF-8" standalone="no"?>
<!-- Created with Inkscape (http://www.inkscape.org/) -->

<svg
   xmlns:dc="http://purl.org/dc/elements/1.1/"
   xmlns:cc="http://creativecommons.org/ns#"
   xmlns:rdf="http://www.w3.org/1999/02/22-rdf-syntax-ns#"
   xmlns:svg="http://www.w3.org/2000/svg"
   xmlns="http://www.w3.org/2000/svg"
   version="1.1"
   width="14.743485"
   height="284.23953"
   id="svg3166">
  <defs
     id="defs3168" />
  <metadata
     id="metadata3171">
    <rdf:RDF>
      <cc:Work
         rdf:about="">
        <dc:format>image/svg+xml</dc:format>
        <dc:type
           rdf:resource="http://purl.org/dc/dcmitype/StillImage" />
        <dc:title></dc:title>
      </cc:Work>
    </rdf:RDF>
  </metadata>
  <g
     transform="translate(4.5146019,266.90044)"
     id="layer1">
    <path
       d="m 3.7794307,-266.83869 c 4.23309,40.1156 5.22006,67.2625 5.55731,152.8496 0.0761,19.297 0.39813,49.30873 0.7149403,66.69258 0.31724,17.38383 0.1968,38.1210895 -0.2675503,46.0828095 -0.95495,16.3719105 -1.95302,19.2462505 -6.3989,18.4278005 -3.31019999,-0.6094 -4.90475,-4.16773 -4.53995,-10.1316405 0.15139,-2.47039 0.004,-7.34167999 -0.32771,-10.82504 -2.57965,-27.1210895 -3.80588,-104.3436095 -2.51253,-158.2309095 0.65321,-27.215 4.82493001,-90.8167 6.5447,-99.7857 0.62638,-3.2656 1.17954,-5.5515 1.22939,-5.0795 z"
       id="path3050-9"
       style="fill:#000000" />
  </g>
</svg>
